<svg width="193" height="43" viewBox="0 0 193 43" fill="none" xmlns="http://www.w3.org/2000/svg">
<path d="M20.6725 17.2888C20.5668 17.3804 20.5043 17.5122 20.5002 17.652C20.4961 17.7918 20.5508 17.927 20.6509 18.0247L21.8898 19.2326C22.0438 19.3827 22.2765 19.4176 22.4677 19.3192L28.8333 16.0434V35C28.8333 35.2761 29.0572 35.5 29.3333 35.5H32.6667C32.9428 35.5 33.1667 35.2761 33.1667 35V16.0459L39.5144 19.3348C39.7058 19.4339 39.9392 19.3993 40.0935 19.2488L41.3491 18.0247C41.4492 17.927 41.5039 17.7918 41.4998 17.652C41.4957 17.5122 41.4332 17.3804 41.3275 17.2888L31.3275 8.62216C31.1395 8.45928 30.8605 8.45928 30.6725 8.62216L20.6725 17.2888Z" fill="white" stroke="white" stroke-linecap="round" stroke-linejoin="round"/>
<path d="M16.884 13.886C16.716 14.162 16.542 14.366 16.362 14.498C16.194 14.618 15.972 14.678 15.696 14.678C15.432 14.678 15.144 14.588 14.832 14.408C14.532 14.216 14.178 14.012 13.77 13.796C13.362 13.58 12.894 13.382 12.366 13.202C11.838 13.01 11.22 12.914 10.512 12.914C9.264 12.914 8.328 13.196 7.704 13.76C7.08 14.312 6.768 15.038 6.768 15.938C6.768 16.514 6.936 16.994 7.272 17.378C7.62 17.75 8.07 18.074 8.622 18.35C9.186 18.626 9.822 18.872 10.53 19.088C11.238 19.304 11.964 19.544 12.708 19.808C13.452 20.06 14.178 20.36 14.886 20.708C15.594 21.056 16.224 21.494 16.776 22.022C17.34 22.55 17.79 23.198 18.126 23.966C18.474 24.722 18.648 25.646 18.648 26.738C18.648 27.926 18.438 29.042 18.018 30.086C17.61 31.118 17.016 32.024 16.236 32.804C15.456 33.572 14.49 34.178 13.338 34.622C12.198 35.066 10.902 35.288 9.45 35.288C8.622 35.288 7.794 35.204 6.966 35.036C6.15 34.868 5.358 34.634 4.59 34.334C3.834 34.034 3.12 33.674 2.448 33.254C1.776 32.834 1.188 32.366 0.684 31.85L2.268 29.294C2.4 29.102 2.574 28.946 2.79 28.826C3.006 28.694 3.234 28.628 3.474 28.628C3.798 28.628 4.14 28.748 4.5 28.988C4.86 29.228 5.274 29.492 5.742 29.78C6.21 30.068 6.75 30.332 7.362 30.572C7.986 30.812 8.73 30.932 9.594 30.932C10.854 30.932 11.826 30.644 12.51 30.068C13.206 29.492 13.554 28.634 13.554 27.494C13.554 26.834 13.38 26.3 13.032 25.892C12.696 25.484 12.252 25.142 11.7 24.866C11.148 24.59 10.518 24.356 9.81 24.164C9.102 23.96 8.376 23.738 7.632 23.498C6.888 23.258 6.162 22.97 5.454 22.634C4.746 22.298 4.116 21.854 3.564 21.302C3.012 20.75 2.562 20.066 2.214 19.25C1.878 18.434 1.71 17.42 1.71 16.208C1.71 15.236 1.902 14.294 2.286 13.382C2.67 12.47 3.234 11.66 3.978 10.952C4.722 10.244 5.634 9.674 6.714 9.242C7.806 8.81 9.054 8.594 10.458 8.594C12.03 8.594 13.482 8.84 14.814 9.332C16.158 9.812 17.292 10.484 18.216 11.348L16.884 13.886ZM55.051 27.242C53.839 27.302 52.831 27.41 52.027 27.566C51.223 27.71 50.581 27.902 50.101 28.142C49.633 28.382 49.297 28.658 49.093 28.97C48.901 29.27 48.805 29.6 48.805 29.96C48.805 30.68 49.003 31.19 49.399 31.49C49.807 31.79 50.371 31.94 51.091 31.94C51.919 31.94 52.633 31.796 53.233 31.508C53.845 31.208 54.451 30.746 55.051 30.122V27.242ZM44.935 19.016C46.027 18.032 47.233 17.3 48.553 16.82C49.873 16.328 51.301 16.082 52.837 16.082C53.941 16.082 54.925 16.262 55.789 16.622C56.665 16.982 57.403 17.486 58.003 18.134C58.615 18.77 59.083 19.532 59.407 20.42C59.731 21.308 59.893 22.28 59.893 23.336V35H57.625C57.157 35 56.797 34.934 56.545 34.802C56.305 34.67 56.107 34.394 55.951 33.974L55.555 32.786C55.087 33.194 54.631 33.554 54.187 33.866C53.755 34.178 53.305 34.442 52.837 34.658C52.369 34.862 51.865 35.018 51.325 35.126C50.797 35.234 50.203 35.288 49.543 35.288C48.727 35.288 47.983 35.18 47.311 34.964C46.639 34.748 46.057 34.43 45.565 34.01C45.085 33.578 44.713 33.044 44.449 32.408C44.185 31.772 44.053 31.04 44.053 30.212C44.053 29.528 44.227 28.844 44.575 28.16C44.923 27.476 45.517 26.858 46.357 26.306C47.209 25.742 48.337 25.28 49.741 24.92C51.157 24.548 52.927 24.338 55.051 24.29V23.336C55.051 22.172 54.805 21.32 54.313 20.78C53.821 20.228 53.113 19.952 52.189 19.952C51.505 19.952 50.935 20.036 50.479 20.204C50.023 20.36 49.621 20.534 49.273 20.726C48.937 20.906 48.619 21.08 48.319 21.248C48.019 21.404 47.671 21.482 47.275 21.482C46.927 21.482 46.633 21.398 46.393 21.23C46.165 21.05 45.973 20.84 45.817 20.6L44.935 19.016ZM67.8929 19.502C68.4809 18.446 69.1589 17.612 69.9269 17C70.6949 16.388 71.5949 16.082 72.6269 16.082C73.4669 16.082 74.1509 16.28 74.6789 16.676L74.3549 20.348C74.2949 20.588 74.1989 20.756 74.0669 20.852C73.9469 20.936 73.7789 20.978 73.5629 20.978C73.3709 20.978 73.0949 20.954 72.7349 20.906C72.3749 20.846 72.0389 20.816 71.7269 20.816C71.2709 20.816 70.8629 20.882 70.5029 21.014C70.1549 21.146 69.8429 21.332 69.5669 21.572C69.2909 21.812 69.0389 22.106 68.8109 22.454C68.5949 22.802 68.3909 23.198 68.1989 23.642V35H63.2309V16.442H66.1649C66.6689 16.442 67.0169 16.532 67.2089 16.712C67.4009 16.892 67.5389 17.204 67.6229 17.648L67.8929 19.502ZM113.01 8.882V35H108.24V18.962C108.24 18.626 108.246 18.266 108.258 17.882C108.282 17.498 108.318 17.108 108.366 16.712L100.896 30.878C100.488 31.658 99.8579 32.048 99.0059 32.048H98.2499C97.8299 32.048 97.4579 31.952 97.1339 31.76C96.8099 31.556 96.5519 31.262 96.3599 30.878L88.8539 16.658C88.8899 17.078 88.9199 17.486 88.9439 17.882C88.9679 18.266 88.9799 18.626 88.9799 18.962V35H84.2099V8.882H88.3139C88.5419 8.882 88.7459 8.888 88.9259 8.9C89.1059 8.912 89.2619 8.948 89.3939 9.008C89.5379 9.056 89.6639 9.14 89.7719 9.26C89.8919 9.368 90.0059 9.524 90.1139 9.728L97.4219 23.66C97.6499 24.08 97.8599 24.512 98.0519 24.956C98.2559 25.4 98.4479 25.856 98.6279 26.324C98.8079 25.844 98.9939 25.376 99.1859 24.92C99.3899 24.464 99.6059 24.026 99.8339 23.606L107.088 9.728C107.196 9.524 107.31 9.368 107.43 9.26C107.55 9.14 107.676 9.056 107.808 9.008C107.952 8.948 108.108 8.912 108.276 8.9C108.456 8.888 108.666 8.882 108.906 8.882H113.01ZM125.036 16.154C126.428 16.154 127.694 16.376 128.834 16.82C129.974 17.264 130.952 17.9 131.768 18.728C132.584 19.544 133.214 20.54 133.658 21.716C134.102 22.892 134.324 24.218 134.324 25.694C134.324 27.17 134.102 28.502 133.658 29.69C133.214 30.866 132.584 31.868 131.768 32.696C130.952 33.524 129.974 34.16 128.834 34.604C127.694 35.048 126.428 35.27 125.036 35.27C123.632 35.27 122.354 35.048 121.202 34.604C120.062 34.16 119.084 33.524 118.268 32.696C117.452 31.868 116.816 30.866 116.36 29.69C115.916 28.502 115.694 27.17 115.694 25.694C115.694 24.218 115.916 22.892 116.36 21.716C116.816 20.54 117.452 19.544 118.268 18.728C119.084 17.9 120.062 17.264 121.202 16.82C122.354 16.376 123.632 16.154 125.036 16.154ZM125.036 31.544C126.452 31.544 127.502 31.058 128.186 30.086C128.87 29.102 129.212 27.644 129.212 25.712C129.212 23.792 128.87 22.346 128.186 21.374C127.502 20.39 126.452 19.898 125.036 19.898C123.584 19.898 122.516 20.39 121.832 21.374C121.148 22.346 120.806 23.792 120.806 25.712C120.806 27.644 121.148 29.102 121.832 30.086C122.516 31.058 123.584 31.544 125.036 31.544ZM141.511 18.602C141.883 18.242 142.267 17.912 142.663 17.612C143.071 17.312 143.497 17.054 143.941 16.838C144.397 16.622 144.883 16.454 145.399 16.334C145.927 16.214 146.497 16.154 147.109 16.154C148.117 16.154 149.011 16.328 149.791 16.676C150.571 17.024 151.225 17.51 151.753 18.134C152.293 18.758 152.695 19.502 152.959 20.366C153.235 21.23 153.373 22.178 153.373 23.21V35H148.423V23.21C148.423 22.178 148.183 21.38 147.703 20.816C147.223 20.24 146.515 19.952 145.579 19.952C144.883 19.952 144.229 20.102 143.617 20.402C143.005 20.702 142.423 21.122 141.871 21.662V35H136.903V16.442H139.963C140.587 16.442 141.001 16.73 141.205 17.306L141.511 18.602ZM168.561 23.534C168.561 23.018 168.489 22.526 168.345 22.058C168.213 21.59 167.997 21.176 167.697 20.816C167.397 20.456 167.019 20.174 166.563 19.97C166.107 19.754 165.561 19.646 164.925 19.646C163.737 19.646 162.807 19.982 162.135 20.654C161.463 21.326 161.025 22.286 160.821 23.534H168.561ZM160.749 26.486C160.905 28.226 161.397 29.498 162.225 30.302C163.065 31.106 164.157 31.508 165.501 31.508C166.185 31.508 166.773 31.43 167.265 31.274C167.769 31.106 168.207 30.926 168.579 30.734C168.963 30.53 169.305 30.35 169.605 30.194C169.917 30.026 170.223 29.942 170.523 29.942C170.907 29.942 171.207 30.086 171.423 30.374L172.863 32.174C172.335 32.786 171.753 33.296 171.117 33.704C170.481 34.1 169.821 34.418 169.137 34.658C168.453 34.886 167.763 35.042 167.067 35.126C166.371 35.222 165.699 35.27 165.051 35.27C163.755 35.27 162.543 35.06 161.415 34.64C160.299 34.208 159.321 33.578 158.481 32.75C157.653 31.91 156.999 30.872 156.519 29.636C156.039 28.4 155.799 26.966 155.799 25.334C155.799 24.074 156.003 22.886 156.411 21.77C156.831 20.654 157.431 19.682 158.211 18.854C158.991 18.026 159.939 17.372 161.055 16.892C162.171 16.4 163.431 16.154 164.835 16.154C166.023 16.154 167.115 16.346 168.111 16.73C169.119 17.102 169.983 17.648 170.703 18.368C171.435 19.088 171.999 19.976 172.395 21.032C172.803 22.076 173.007 23.27 173.007 24.614C173.007 24.986 172.989 25.292 172.953 25.532C172.917 25.772 172.857 25.964 172.773 26.108C172.689 26.252 172.575 26.354 172.431 26.414C172.287 26.462 172.101 26.486 171.873 26.486H160.749ZM192.195 16.442L182.187 39.986C182.031 40.322 181.839 40.574 181.611 40.742C181.395 40.91 181.047 40.994 180.567 40.994H176.877L180.387 33.506L172.935 16.442H177.291C177.687 16.442 177.993 16.532 178.209 16.712C178.425 16.892 178.581 17.102 178.677 17.342L182.205 26.216C182.337 26.564 182.451 26.918 182.547 27.278C182.655 27.626 182.757 27.974 182.853 28.322C183.069 27.614 183.315 26.906 183.591 26.198L186.867 17.342C186.963 17.078 187.137 16.862 187.389 16.694C187.641 16.526 187.917 16.442 188.217 16.442H192.195Z" fill="white"/>
</svg>
