<svg width="174" height="34" viewBox="0 0 174 34" fill="none" xmlns="http://www.w3.org/2000/svg">
<path d="M40.6678 15.9596C40.5649 16.0511 40.5043 16.181 40.5002 16.3186C40.4962 16.4563 40.5491 16.5895 40.6464 16.6869L41.3898 17.4302C41.5448 17.5853 41.7828 17.6212 41.9767 17.5189L45.5 15.6593V27C45.5 27.2761 45.7239 27.5 46 27.5H48C48.2761 27.5 48.5 27.2761 48.5 27V15.6619L52.012 17.5282C52.2061 17.6313 52.4448 17.5956 52.6002 17.4402L53.3536 16.6869C53.4509 16.5895 53.5038 16.4563 53.4998 16.3186C53.4957 16.181 53.4351 16.0511 53.3322 15.9596L47.3322 10.6263C47.1427 10.4579 46.8573 10.4579 46.6678 10.6263L40.6678 15.9596Z" fill="#3F63E2" stroke="#3F63E2" stroke-linecap="round" stroke-linejoin="round"/>
<path d="M37.256 12.924C37.144 13.108 37.028 13.244 36.908 13.332C36.796 13.412 36.648 13.452 36.464 13.452C36.288 13.452 36.096 13.392 35.888 13.272C35.688 13.144 35.452 13.008 35.18 12.864C34.908 12.72 34.596 12.588 34.244 12.468C33.892 12.34 33.48 12.276 33.008 12.276C32.176 12.276 31.552 12.464 31.136 12.84C30.72 13.208 30.512 13.692 30.512 14.292C30.512 14.676 30.624 14.996 30.848 15.252C31.08 15.5 31.38 15.716 31.748 15.9C32.124 16.084 32.548 16.248 33.02 16.392C33.492 16.536 33.976 16.696 34.472 16.872C34.968 17.04 35.452 17.24 35.924 17.472C36.396 17.704 36.816 17.996 37.184 18.348C37.56 18.7 37.86 19.132 38.084 19.644C38.316 20.148 38.432 20.764 38.432 21.492C38.432 22.284 38.292 23.028 38.012 23.724C37.74 24.412 37.344 25.016 36.824 25.536C36.304 26.048 35.66 26.452 34.892 26.748C34.132 27.044 33.268 27.192 32.3 27.192C31.748 27.192 31.196 27.136 30.644 27.024C30.1 26.912 29.572 26.756 29.06 26.556C28.556 26.356 28.08 26.116 27.632 25.836C27.184 25.556 26.792 25.244 26.456 24.9L27.512 23.196C27.6 23.068 27.716 22.964 27.86 22.884C28.004 22.796 28.156 22.752 28.316 22.752C28.532 22.752 28.76 22.832 29 22.992C29.24 23.152 29.516 23.328 29.828 23.52C30.14 23.712 30.5 23.888 30.908 24.048C31.324 24.208 31.82 24.288 32.396 24.288C33.236 24.288 33.884 24.096 34.34 23.712C34.804 23.328 35.036 22.756 35.036 21.996C35.036 21.556 34.92 21.2 34.688 20.928C34.464 20.656 34.168 20.428 33.8 20.244C33.432 20.06 33.012 19.904 32.54 19.776C32.068 19.64 31.584 19.492 31.088 19.332C30.592 19.172 30.108 18.98 29.636 18.756C29.164 18.532 28.744 18.236 28.376 17.868C28.008 17.5 27.708 17.044 27.476 16.5C27.252 15.956 27.14 15.28 27.14 14.472C27.14 13.824 27.268 13.196 27.524 12.588C27.78 11.98 28.156 11.44 28.652 10.968C29.148 10.496 29.756 10.116 30.476 9.828C31.204 9.54 32.036 9.396 32.972 9.396C34.02 9.396 34.988 9.56 35.876 9.888C36.772 10.208 37.528 10.656 38.144 11.232L37.256 12.924ZM62.7007 21.828C61.8927 21.868 61.2207 21.94 60.6847 22.044C60.1487 22.14 59.7207 22.268 59.4007 22.428C59.0887 22.588 58.8647 22.772 58.7287 22.98C58.6007 23.18 58.5367 23.4 58.5367 23.64C58.5367 24.12 58.6687 24.46 58.9327 24.66C59.2047 24.86 59.5807 24.96 60.0607 24.96C60.6127 24.96 61.0887 24.864 61.4887 24.672C61.8967 24.472 62.3007 24.164 62.7007 23.748V21.828ZM55.9567 16.344C56.6847 15.688 57.4887 15.2 58.3687 14.88C59.2487 14.552 60.2007 14.388 61.2247 14.388C61.9607 14.388 62.6167 14.508 63.1927 14.748C63.7767 14.988 64.2687 15.324 64.6687 15.756C65.0767 16.18 65.3887 16.688 65.6047 17.28C65.8207 17.872 65.9287 18.52 65.9287 19.224V27H64.4167C64.1047 27 63.8647 26.956 63.6967 26.868C63.5367 26.78 63.4047 26.596 63.3007 26.316L63.0367 25.524C62.7247 25.796 62.4207 26.036 62.1247 26.244C61.8367 26.452 61.5367 26.628 61.2247 26.772C60.9127 26.908 60.5767 27.012 60.2167 27.084C59.8647 27.156 59.4687 27.192 59.0287 27.192C58.4847 27.192 57.9887 27.12 57.5407 26.976C57.0927 26.832 56.7047 26.62 56.3767 26.34C56.0567 26.052 55.8087 25.696 55.6327 25.272C55.4567 24.848 55.3687 24.36 55.3687 23.808C55.3687 23.352 55.4847 22.896 55.7167 22.44C55.9487 21.984 56.3447 21.572 56.9047 21.204C57.4727 20.828 58.2247 20.52 59.1607 20.28C60.1047 20.032 61.2847 19.892 62.7007 19.86V19.224C62.7007 18.448 62.5367 17.88 62.2087 17.52C61.8807 17.152 61.4087 16.968 60.7927 16.968C60.3367 16.968 59.9567 17.024 59.6527 17.136C59.3487 17.24 59.0807 17.356 58.8487 17.484C58.6247 17.604 58.4127 17.72 58.2127 17.832C58.0127 17.936 57.7807 17.988 57.5167 17.988C57.2847 17.988 57.0887 17.932 56.9287 17.82C56.7767 17.7 56.6487 17.56 56.5447 17.4L55.9567 16.344ZM71.2619 16.668C71.6539 15.964 72.1059 15.408 72.6179 15C73.1299 14.592 73.7299 14.388 74.4179 14.388C74.9779 14.388 75.4339 14.52 75.7859 14.784L75.5699 17.232C75.5299 17.392 75.4659 17.504 75.3779 17.568C75.2979 17.624 75.1859 17.652 75.0419 17.652C74.9139 17.652 74.7299 17.636 74.4899 17.604C74.2499 17.564 74.0259 17.544 73.8179 17.544C73.5139 17.544 73.2419 17.588 73.0019 17.676C72.7699 17.764 72.5619 17.888 72.3779 18.048C72.1939 18.208 72.0259 18.404 71.8739 18.636C71.7299 18.868 71.5939 19.132 71.4659 19.428V27H68.1539V14.628H70.1099C70.4459 14.628 70.6779 14.688 70.8059 14.808C70.9339 14.928 71.0259 15.136 71.0819 15.432L71.2619 16.668ZM101.34 9.588V27H98.1599V16.308C98.1599 16.084 98.1639 15.844 98.1719 15.588C98.1879 15.332 98.2119 15.072 98.2439 14.808L93.2639 24.252C92.9919 24.772 92.5719 25.032 92.0039 25.032H91.4999C91.2199 25.032 90.9719 24.968 90.7559 24.84C90.5399 24.704 90.3679 24.508 90.2399 24.252L85.2359 14.772C85.2599 15.052 85.2799 15.324 85.2959 15.588C85.3119 15.844 85.3199 16.084 85.3199 16.308V27H82.1399V9.588H84.8759C85.0279 9.588 85.1639 9.592 85.2839 9.6C85.4039 9.608 85.5079 9.632 85.5959 9.672C85.6919 9.704 85.7759 9.76 85.8479 9.84C85.9279 9.912 86.0039 10.016 86.0759 10.152L90.9479 19.44C91.0999 19.72 91.2399 20.008 91.3679 20.304C91.5039 20.6 91.6319 20.904 91.7519 21.216C91.8719 20.896 91.9959 20.584 92.1239 20.28C92.2599 19.976 92.4039 19.684 92.5559 19.404L97.3919 10.152C97.4639 10.016 97.5399 9.912 97.6199 9.84C97.6999 9.76 97.7839 9.704 97.8719 9.672C97.9679 9.632 98.0719 9.608 98.1839 9.6C98.3039 9.592 98.4439 9.588 98.6039 9.588H101.34ZM109.357 14.436C110.285 14.436 111.129 14.584 111.889 14.88C112.649 15.176 113.301 15.6 113.845 16.152C114.389 16.696 114.809 17.36 115.105 18.144C115.401 18.928 115.549 19.812 115.549 20.796C115.549 21.78 115.401 22.668 115.105 23.46C114.809 24.244 114.389 24.912 113.845 25.464C113.301 26.016 112.649 26.44 111.889 26.736C111.129 27.032 110.285 27.18 109.357 27.18C108.421 27.18 107.569 27.032 106.801 26.736C106.041 26.44 105.389 26.016 104.845 25.464C104.301 24.912 103.877 24.244 103.573 23.46C103.277 22.668 103.129 21.78 103.129 20.796C103.129 19.812 103.277 18.928 103.573 18.144C103.877 17.36 104.301 16.696 104.845 16.152C105.389 15.6 106.041 15.176 106.801 14.88C107.569 14.584 108.421 14.436 109.357 14.436ZM109.357 24.696C110.301 24.696 111.001 24.372 111.457 23.724C111.913 23.068 112.141 22.096 112.141 20.808C112.141 19.528 111.913 18.564 111.457 17.916C111.001 17.26 110.301 16.932 109.357 16.932C108.389 16.932 107.677 17.26 107.221 17.916C106.765 18.564 106.537 19.528 106.537 20.808C106.537 22.096 106.765 23.068 107.221 23.724C107.677 24.372 108.389 24.696 109.357 24.696ZM120.341 16.068C120.589 15.828 120.845 15.608 121.109 15.408C121.381 15.208 121.665 15.036 121.961 14.892C122.265 14.748 122.589 14.636 122.933 14.556C123.285 14.476 123.665 14.436 124.073 14.436C124.745 14.436 125.341 14.552 125.861 14.784C126.381 15.016 126.817 15.34 127.169 15.756C127.529 16.172 127.797 16.668 127.973 17.244C128.157 17.82 128.249 18.452 128.249 19.14V27H124.949V19.14C124.949 18.452 124.789 17.92 124.469 17.544C124.149 17.16 123.677 16.968 123.053 16.968C122.589 16.968 122.153 17.068 121.745 17.268C121.337 17.468 120.949 17.748 120.581 18.108V27H117.269V14.628H119.309C119.725 14.628 120.001 14.82 120.137 15.204L120.341 16.068ZM138.374 19.356C138.374 19.012 138.326 18.684 138.23 18.372C138.142 18.06 137.998 17.784 137.798 17.544C137.598 17.304 137.346 17.116 137.042 16.98C136.738 16.836 136.374 16.764 135.95 16.764C135.158 16.764 134.538 16.988 134.09 17.436C133.642 17.884 133.35 18.524 133.214 19.356H138.374ZM133.166 21.324C133.27 22.484 133.598 23.332 134.15 23.868C134.71 24.404 135.438 24.672 136.334 24.672C136.79 24.672 137.182 24.62 137.51 24.516C137.846 24.404 138.138 24.284 138.386 24.156C138.642 24.02 138.87 23.9 139.07 23.796C139.278 23.684 139.482 23.628 139.682 23.628C139.938 23.628 140.138 23.724 140.282 23.916L141.242 25.116C140.89 25.524 140.502 25.864 140.078 26.136C139.654 26.4 139.214 26.612 138.758 26.772C138.302 26.924 137.842 27.028 137.378 27.084C136.914 27.148 136.466 27.18 136.034 27.18C135.17 27.18 134.362 27.04 133.61 26.76C132.866 26.472 132.214 26.052 131.654 25.5C131.102 24.94 130.666 24.248 130.346 23.424C130.026 22.6 129.866 21.644 129.866 20.556C129.866 19.716 130.002 18.924 130.274 18.18C130.554 17.436 130.954 16.788 131.474 16.236C131.994 15.684 132.626 15.248 133.37 14.928C134.114 14.6 134.954 14.436 135.89 14.436C136.682 14.436 137.41 14.564 138.074 14.82C138.746 15.068 139.322 15.432 139.802 15.912C140.29 16.392 140.666 16.984 140.93 17.688C141.202 18.384 141.338 19.18 141.338 20.076C141.338 20.324 141.326 20.528 141.302 20.688C141.278 20.848 141.238 20.976 141.182 21.072C141.126 21.168 141.05 21.236 140.954 21.276C140.858 21.308 140.734 21.324 140.582 21.324H133.166ZM154.13 14.628L147.458 30.324C147.354 30.548 147.226 30.716 147.074 30.828C146.93 30.94 146.698 30.996 146.378 30.996H143.918L146.258 26.004L141.29 14.628H144.194C144.458 14.628 144.662 14.688 144.806 14.808C144.95 14.928 145.054 15.068 145.118 15.228L147.47 21.144C147.558 21.376 147.634 21.612 147.698 21.852C147.77 22.084 147.838 22.316 147.902 22.548C148.046 22.076 148.21 21.604 148.394 21.132L150.578 15.228C150.642 15.052 150.758 14.908 150.926 14.796C151.094 14.684 151.278 14.628 151.478 14.628H154.13Z" fill="#3F63E2"/>
</svg>
