<svg width="375" height="187" viewBox="0 0 375 187" fill="none" xmlns="http://www.w3.org/2000/svg">
<rect width="375" height="147" fill="#F6F6F6"/>
<path d="M272.146 132H269.431V126.454H264.342V132H261.617V119.15H264.342V124.187H269.431V119.15H272.146V132ZM277.323 127.069C277.323 128.042 277.481 128.777 277.798 129.275C278.12 129.773 278.642 130.022 279.362 130.022C280.077 130.022 280.59 129.776 280.9 129.284C281.217 128.786 281.375 128.048 281.375 127.069C281.375 126.097 281.217 125.367 280.9 124.881C280.584 124.395 280.065 124.151 279.345 124.151C278.63 124.151 278.114 124.395 277.798 124.881C277.481 125.361 277.323 126.091 277.323 127.069ZM284.117 127.069C284.117 128.669 283.695 129.92 282.852 130.822C282.008 131.725 280.833 132.176 279.327 132.176C278.384 132.176 277.552 131.971 276.831 131.561C276.11 131.145 275.557 130.55 275.17 129.776C274.783 129.003 274.59 128.101 274.59 127.069C274.59 125.464 275.009 124.216 275.847 123.325C276.685 122.435 277.862 121.989 279.38 121.989C280.323 121.989 281.155 122.194 281.876 122.604C282.597 123.015 283.15 123.604 283.537 124.371C283.924 125.139 284.117 126.038 284.117 127.069ZM285.541 136.324C284.855 136.324 284.267 136.251 283.774 136.104V133.995C284.185 134.106 284.604 134.162 285.031 134.162C285.482 134.162 285.811 134.036 286.016 133.784C286.227 133.532 286.332 133.16 286.332 132.668V122.174H289.013V133.063C289.013 134.106 288.711 134.909 288.107 135.472C287.504 136.04 286.648 136.324 285.541 136.324ZM286.218 119.634C286.218 118.761 286.704 118.324 287.677 118.324C288.649 118.324 289.136 118.761 289.136 119.634C289.136 120.05 289.013 120.375 288.767 120.609C288.526 120.838 288.163 120.952 287.677 120.952C286.704 120.952 286.218 120.513 286.218 119.634ZM295.903 123.896C295.335 123.896 294.89 124.078 294.567 124.441C294.245 124.799 294.061 125.309 294.014 125.971H297.775C297.764 125.309 297.591 124.799 297.257 124.441C296.923 124.078 296.472 123.896 295.903 123.896ZM296.281 132.176C294.699 132.176 293.463 131.739 292.572 130.866C291.682 129.993 291.236 128.757 291.236 127.157C291.236 125.511 291.646 124.239 292.467 123.343C293.293 122.44 294.433 121.989 295.886 121.989C297.274 121.989 298.355 122.385 299.129 123.176C299.902 123.967 300.289 125.06 300.289 126.454V127.755H293.952C293.981 128.517 294.207 129.111 294.629 129.539C295.051 129.967 295.643 130.181 296.404 130.181C296.996 130.181 297.556 130.119 298.083 129.996C298.61 129.873 299.161 129.677 299.735 129.407V131.481C299.267 131.716 298.766 131.889 298.232 132C297.699 132.117 297.049 132.176 296.281 132.176Z" fill="#1B1B1B"/>
<path d="M177.484 125.273C177.484 127.102 177.021 128.539 176.094 129.586C175.172 130.633 173.888 131.156 172.242 131.156C170.56 131.156 169.26 130.643 168.344 129.617C167.432 128.586 166.977 127.133 166.977 125.258C166.977 123.398 167.435 121.958 168.352 120.938C169.268 119.911 170.57 119.398 172.258 119.398C173.898 119.398 175.18 119.919 176.102 120.961C177.023 122.003 177.484 123.44 177.484 125.273ZM168.383 125.273C168.383 126.82 168.711 127.995 169.367 128.797C170.029 129.594 170.987 129.992 172.242 129.992C173.508 129.992 174.464 129.594 175.109 128.797C175.755 128 176.078 126.826 176.078 125.273C176.078 123.737 175.755 122.573 175.109 121.781C174.469 120.984 173.518 120.586 172.258 120.586C170.992 120.586 170.029 120.987 169.367 121.789C168.711 122.586 168.383 123.747 168.383 125.273ZM185.703 131V125.461C185.703 124.763 185.544 124.242 185.227 123.898C184.909 123.555 184.411 123.383 183.734 123.383C182.839 123.383 182.182 123.625 181.766 124.109C181.349 124.594 181.141 125.393 181.141 126.508V131H179.844V122.438H180.898L181.109 123.609H181.172C181.438 123.188 181.81 122.862 182.289 122.633C182.768 122.398 183.302 122.281 183.891 122.281C184.922 122.281 185.698 122.531 186.219 123.031C186.74 123.526 187 124.32 187 125.414V131H185.703ZM192.438 130.086C192.667 130.086 192.888 130.07 193.102 130.039C193.315 130.003 193.484 129.966 193.609 129.93V130.922C193.469 130.99 193.26 131.044 192.984 131.086C192.714 131.133 192.469 131.156 192.25 131.156C190.594 131.156 189.766 130.284 189.766 128.539V123.445H188.539V122.82L189.766 122.281L190.312 120.453H191.062V122.438H193.547V123.445H191.062V128.484C191.062 129 191.185 129.396 191.43 129.672C191.674 129.948 192.01 130.086 192.438 130.086ZM198.945 131.156C197.68 131.156 196.68 130.771 195.945 130C195.216 129.229 194.852 128.159 194.852 126.789C194.852 125.409 195.19 124.312 195.867 123.5C196.549 122.688 197.464 122.281 198.609 122.281C199.682 122.281 200.531 122.635 201.156 123.344C201.781 124.047 202.094 124.977 202.094 126.133V126.953H196.195C196.221 127.958 196.474 128.721 196.953 129.242C197.438 129.763 198.117 130.023 198.992 130.023C199.914 130.023 200.826 129.831 201.727 129.445V130.602C201.268 130.799 200.833 130.94 200.422 131.023C200.016 131.112 199.523 131.156 198.945 131.156ZM198.594 123.367C197.906 123.367 197.357 123.591 196.945 124.039C196.539 124.487 196.299 125.107 196.227 125.898H200.703C200.703 125.081 200.521 124.456 200.156 124.023C199.792 123.586 199.271 123.367 198.594 123.367ZM215.227 131V125.43C215.227 124.747 215.081 124.237 214.789 123.898C214.497 123.555 214.044 123.383 213.43 123.383C212.622 123.383 212.026 123.615 211.641 124.078C211.255 124.542 211.062 125.255 211.062 126.219V131H209.766V125.43C209.766 124.747 209.62 124.237 209.328 123.898C209.036 123.555 208.581 123.383 207.961 123.383C207.148 123.383 206.552 123.628 206.172 124.117C205.797 124.602 205.609 125.398 205.609 126.508V131H204.312V122.438H205.367L205.578 123.609H205.641C205.885 123.193 206.229 122.867 206.672 122.633C207.12 122.398 207.62 122.281 208.172 122.281C209.51 122.281 210.385 122.766 210.797 123.734H210.859C211.115 123.286 211.484 122.932 211.969 122.672C212.453 122.411 213.005 122.281 213.625 122.281C214.594 122.281 215.318 122.531 215.797 123.031C216.281 123.526 216.523 124.32 216.523 125.414V131H215.227Z" fill="#505050"/>
<path d="M81.5859 131H80.3203V122.859C80.3203 122.182 80.3411 121.542 80.3828 120.938C80.2734 121.047 80.151 121.161 80.0156 121.281C79.8802 121.401 79.2604 121.909 78.1562 122.805L77.4688 121.914L80.4922 119.578H81.5859V131ZM87.3828 131L92.1172 120.773H85.8906V119.578H93.4922V120.617L88.8203 131H87.3828ZM100.023 119.578L95.7656 131H94.4688L98.7266 119.578H100.023ZM108.539 125.273C108.539 127.247 108.227 128.721 107.602 129.695C106.982 130.669 106.031 131.156 104.75 131.156C103.521 131.156 102.586 130.659 101.945 129.664C101.305 128.664 100.984 127.201 100.984 125.273C100.984 123.284 101.294 121.807 101.914 120.844C102.534 119.88 103.479 119.398 104.75 119.398C105.99 119.398 106.93 119.901 107.57 120.906C108.216 121.911 108.539 123.367 108.539 125.273ZM102.297 125.273C102.297 126.935 102.492 128.146 102.883 128.906C103.273 129.661 103.896 130.039 104.75 130.039C105.615 130.039 106.24 129.656 106.625 128.891C107.016 128.12 107.211 126.914 107.211 125.273C107.211 123.633 107.016 122.432 106.625 121.672C106.24 120.906 105.615 120.523 104.75 120.523C103.896 120.523 103.273 120.901 102.883 121.656C102.492 122.406 102.297 123.612 102.297 125.273ZM117.203 122.266C117.203 122.995 116.997 123.591 116.586 124.055C116.18 124.518 115.602 124.828 114.852 124.984V125.047C115.768 125.161 116.448 125.453 116.891 125.922C117.333 126.391 117.555 127.005 117.555 127.766C117.555 128.854 117.177 129.693 116.422 130.281C115.667 130.865 114.594 131.156 113.203 131.156C112.599 131.156 112.044 131.109 111.539 131.016C111.039 130.927 110.552 130.768 110.078 130.539V129.305C110.573 129.549 111.099 129.737 111.656 129.867C112.219 129.992 112.75 130.055 113.25 130.055C115.224 130.055 116.211 129.281 116.211 127.734C116.211 126.349 115.122 125.656 112.945 125.656H111.82V124.539H112.961C113.852 124.539 114.557 124.344 115.078 123.953C115.599 123.557 115.859 123.01 115.859 122.312C115.859 121.755 115.667 121.318 115.281 121C114.901 120.682 114.383 120.523 113.727 120.523C113.227 120.523 112.755 120.591 112.312 120.727C111.87 120.862 111.365 121.112 110.797 121.477L110.141 120.602C110.609 120.232 111.148 119.943 111.758 119.734C112.372 119.521 113.018 119.414 113.695 119.414C114.805 119.414 115.667 119.669 116.281 120.18C116.896 120.685 117.203 121.38 117.203 122.266Z" fill="#505050"/>
<path d="M-13.4141 131H-14.6797V122.859C-14.6797 122.182 -14.6589 121.542 -14.6172 120.938C-14.7266 121.047 -14.849 121.161 -14.9844 121.281C-15.1198 121.401 -15.7396 121.909 -16.8438 122.805L-17.5312 121.914L-14.5078 119.578H-13.4141V131ZM-8.92969 126.117C-8.92969 123.872 -8.49479 122.195 -7.625 121.086C-6.75 119.971 -5.45833 119.414 -3.75 119.414C-3.16146 119.414 -2.69792 119.464 -2.35938 119.562V120.68C-2.76042 120.549 -3.21875 120.484 -3.73438 120.484C-4.95833 120.484 -5.89323 120.867 -6.53906 121.633C-7.1849 122.393 -7.53906 123.591 -7.60156 125.227H-7.50781C-6.9349 124.331 -6.02865 123.883 -4.78906 123.883C-3.76302 123.883 -2.95573 124.193 -2.36719 124.812C-1.77344 125.432 -1.47656 126.273 -1.47656 127.336C-1.47656 128.523 -1.80208 129.458 -2.45312 130.141C-3.09896 130.818 -3.97396 131.156 -5.07812 131.156C-6.26042 131.156 -7.19792 130.714 -7.89062 129.828C-8.58333 128.938 -8.92969 127.701 -8.92969 126.117ZM-5.09375 130.055C-4.35417 130.055 -3.78125 129.823 -3.375 129.359C-2.96354 128.891 -2.75781 128.216 -2.75781 127.336C-2.75781 126.581 -2.94792 125.987 -3.32812 125.555C-3.70833 125.122 -4.27604 124.906 -5.03125 124.906C-5.5 124.906 -5.92969 125.003 -6.32031 125.195C-6.71094 125.388 -7.02344 125.654 -7.25781 125.992C-7.48698 126.331 -7.60156 126.682 -7.60156 127.047C-7.60156 127.583 -7.4974 128.083 -7.28906 128.547C-7.08073 129.01 -6.78646 129.378 -6.40625 129.648C-6.02083 129.919 -5.58333 130.055 -5.09375 130.055ZM5.02344 119.578L0.765625 131H-0.53125L3.72656 119.578H5.02344ZM13.5391 125.273C13.5391 127.247 13.2266 128.721 12.6016 129.695C11.9818 130.669 11.0312 131.156 9.75 131.156C8.52083 131.156 7.58594 130.659 6.94531 129.664C6.30469 128.664 5.98438 127.201 5.98438 125.273C5.98438 123.284 6.29427 121.807 6.91406 120.844C7.53385 119.88 8.47917 119.398 9.75 119.398C10.9896 119.398 11.9297 119.901 12.5703 120.906C13.2161 121.911 13.5391 123.367 13.5391 125.273ZM7.29688 125.273C7.29688 126.935 7.49219 128.146 7.88281 128.906C8.27344 129.661 8.89583 130.039 9.75 130.039C10.6146 130.039 11.2396 129.656 11.625 128.891C12.0156 128.12 12.2109 126.914 12.2109 125.273C12.2109 123.633 12.0156 122.432 11.625 121.672C11.2396 120.906 10.6146 120.523 9.75 120.523C8.89583 120.523 8.27344 120.901 7.88281 121.656C7.49219 122.406 7.29688 123.612 7.29688 125.273ZM22.2031 122.266C22.2031 122.995 21.9974 123.591 21.5859 124.055C21.1797 124.518 20.6016 124.828 19.8516 124.984V125.047C20.7682 125.161 21.4479 125.453 21.8906 125.922C22.3333 126.391 22.5547 127.005 22.5547 127.766C22.5547 128.854 22.1771 129.693 21.4219 130.281C20.6667 130.865 19.5938 131.156 18.2031 131.156C17.599 131.156 17.0443 131.109 16.5391 131.016C16.0391 130.927 15.5521 130.768 15.0781 130.539V129.305C15.5729 129.549 16.099 129.737 16.6562 129.867C17.2188 129.992 17.75 130.055 18.25 130.055C20.224 130.055 21.2109 129.281 21.2109 127.734C21.2109 126.349 20.1224 125.656 17.9453 125.656H16.8203V124.539H17.9609C18.8516 124.539 19.5573 124.344 20.0781 123.953C20.599 123.557 20.8594 123.01 20.8594 122.312C20.8594 121.755 20.6667 121.318 20.2812 121C19.901 120.682 19.3828 120.523 18.7266 120.523C18.2266 120.523 17.7552 120.591 17.3125 120.727C16.8698 120.862 16.3646 121.112 15.7969 121.477L15.1406 120.602C15.6094 120.232 16.1484 119.943 16.7578 119.734C17.3724 119.521 18.0182 119.414 18.6953 119.414C19.8047 119.414 20.6667 119.669 21.2812 120.18C21.8958 120.685 22.2031 121.38 22.2031 122.266Z" fill="#505050"/>
<g filter="url(#filter0_d)">
<rect x="256" y="38" width="28" height="61" fill="#A0E9BC"/>
</g>
<g filter="url(#filter1_d)">
<rect x="276" y="62" width="28" height="37" fill="#F9EA64"/>
</g>
<g filter="url(#filter2_d)">
<rect x="164" y="16" width="28" height="83" fill="#A0E9BC"/>
</g>
<g filter="url(#filter3_d)">
<rect x="184" y="75" width="28" height="24" fill="#F9EA64"/>
</g>
<g filter="url(#filter4_d)">
<rect x="72" y="68" width="28" height="31" fill="#A0E9BC"/>
</g>
<g filter="url(#filter5_d)">
<rect x="92" y="64.4263" width="28" height="34.5738" fill="#F9EA64"/>
</g>
<g filter="url(#filter6_d)">
<rect x="-20" y="68.5737" width="28" height="31" fill="#A0E9BC"/>
</g>
<g filter="url(#filter7_d)">
<rect y="65" width="28" height="34.5738" fill="#F9EA64"/>
</g>
<g filter="url(#filter8_d)">
<circle cx="26.5" cy="171.5" r="6.5" fill="#A0E9BC"/>
</g>
<g filter="url(#filter9_d)">
<circle cx="96.5" cy="172.5" r="6.5" fill="#F9EA64"/>
</g>
<path d="M40.3774 169.136C39.6398 169.136 39.0597 169.397 38.6372 169.92C38.2147 170.443 38.0034 171.164 38.0034 172.084C38.0034 173.048 38.2057 173.776 38.6104 174.271C39.0186 174.765 39.6076 175.012 40.3774 175.012C40.7104 175.012 41.0327 174.979 41.3442 174.915C41.6558 174.847 41.9798 174.761 42.3164 174.657V175.758C41.7005 175.991 41.0023 176.107 40.2217 176.107C39.0723 176.107 38.1896 175.76 37.5737 175.065C36.9578 174.367 36.6499 173.37 36.6499 172.074C36.6499 171.257 36.7985 170.543 37.0957 169.931C37.3965 169.318 37.8298 168.849 38.3955 168.523C38.9613 168.198 39.6255 168.035 40.3882 168.035C41.1903 168.035 41.9315 168.203 42.6118 168.54L42.1499 169.608C41.8849 169.483 41.6038 169.374 41.3066 169.281C41.013 169.184 40.7033 169.136 40.3774 169.136ZM47.5908 176L47.3384 175.173H47.2954C47.009 175.535 46.7207 175.782 46.4307 175.914C46.1406 176.043 45.7682 176.107 45.3135 176.107C44.7298 176.107 44.2733 175.95 43.9438 175.635C43.618 175.32 43.4551 174.874 43.4551 174.297C43.4551 173.685 43.6825 173.223 44.1372 172.912C44.592 172.6 45.2848 172.43 46.2158 172.401L47.2417 172.369V172.052C47.2417 171.673 47.1522 171.39 46.9731 171.204C46.7977 171.014 46.5238 170.919 46.1514 170.919C45.847 170.919 45.5552 170.964 45.2759 171.053C44.9966 171.143 44.728 171.248 44.4702 171.37L44.062 170.468C44.3843 170.299 44.737 170.172 45.1201 170.086C45.5033 169.997 45.8649 169.952 46.2051 169.952C46.9606 169.952 47.5299 170.117 47.9131 170.446C48.2998 170.776 48.4932 171.293 48.4932 171.999V176H47.5908ZM45.7109 175.141C46.1693 175.141 46.5363 175.014 46.812 174.759C47.0913 174.501 47.231 174.142 47.231 173.68V173.164L46.4683 173.196C45.8739 173.218 45.4406 173.318 45.1685 173.497C44.8999 173.673 44.7656 173.943 44.7656 174.308C44.7656 174.573 44.8444 174.779 45.002 174.926C45.1595 175.069 45.3958 175.141 45.7109 175.141ZM51.5171 176H50.2549V170.06H51.5171V176ZM50.1797 168.486C50.1797 168.26 50.2406 168.087 50.3623 167.965C50.4876 167.843 50.6649 167.782 50.894 167.782C51.116 167.782 51.2879 167.843 51.4097 167.965C51.535 168.087 51.5977 168.26 51.5977 168.486C51.5977 168.701 51.535 168.871 51.4097 168.996C51.2879 169.118 51.116 169.179 50.894 169.179C50.6649 169.179 50.4876 169.118 50.3623 168.996C50.2406 168.871 50.1797 168.701 50.1797 168.486ZM54.6484 172.965L52.6558 170.06H54.0952L55.4487 172.138L56.813 170.06H58.2417L56.2437 172.965L58.3438 176H56.915L55.4487 173.776L53.9878 176H52.5591L54.6484 172.965ZM63.1025 176L62.8501 175.173H62.8071C62.5207 175.535 62.2324 175.782 61.9424 175.914C61.6523 176.043 61.2799 176.107 60.8252 176.107C60.2415 176.107 59.785 175.95 59.4556 175.635C59.1297 175.32 58.9668 174.874 58.9668 174.297C58.9668 173.685 59.1942 173.223 59.6489 172.912C60.1037 172.6 60.7965 172.43 61.7275 172.401L62.7534 172.369V172.052C62.7534 171.673 62.6639 171.39 62.4849 171.204C62.3094 171.014 62.0355 170.919 61.6631 170.919C61.3587 170.919 61.0669 170.964 60.7876 171.053C60.5083 171.143 60.2397 171.248 59.9819 171.37L59.5737 170.468C59.896 170.299 60.2487 170.172 60.6318 170.086C61.015 169.997 61.3766 169.952 61.7168 169.952C62.4723 169.952 63.0417 170.117 63.4248 170.446C63.8115 170.776 64.0049 171.293 64.0049 171.999V176H63.1025ZM61.2227 175.141C61.681 175.141 62.048 175.014 62.3237 174.759C62.603 174.501 62.7427 174.142 62.7427 173.68V173.164L61.98 173.196C61.3856 173.218 60.9523 173.318 60.6802 173.497C60.4116 173.673 60.2773 173.943 60.2773 174.308C60.2773 174.573 60.3561 174.779 60.5137 174.926C60.6712 175.069 60.9076 175.141 61.2227 175.141Z" fill="#1B1B1B"/>
<path d="M113.579 177H112.005L108.143 170.743H108.1L108.127 171.092C108.177 171.758 108.202 172.367 108.202 172.918V177H107.037V169.147H108.594L112.445 175.373H112.478C112.47 175.29 112.456 174.991 112.435 174.476C112.413 173.956 112.402 173.552 112.402 173.262V169.147H113.579V177ZM118.112 177.107C117.188 177.107 116.465 176.839 115.942 176.302C115.423 175.761 115.163 175.018 115.163 174.073C115.163 173.102 115.405 172.34 115.888 171.785C116.372 171.23 117.036 170.952 117.881 170.952C118.665 170.952 119.285 171.19 119.739 171.667C120.194 172.143 120.421 172.798 120.421 173.632V174.314H116.463C116.481 174.891 116.637 175.335 116.93 175.646C117.224 175.954 117.637 176.108 118.171 176.108C118.522 176.108 118.848 176.076 119.148 176.012C119.453 175.944 119.779 175.833 120.126 175.679V176.705C119.818 176.851 119.507 176.955 119.191 177.016C118.876 177.077 118.516 177.107 118.112 177.107ZM117.881 171.908C117.48 171.908 117.158 172.035 116.914 172.29C116.674 172.544 116.531 172.914 116.484 173.401H119.181C119.174 172.911 119.055 172.54 118.826 172.29C118.597 172.035 118.282 171.908 117.881 171.908ZM124.251 177.107C123.352 177.107 122.668 176.846 122.199 176.323C121.734 175.797 121.501 175.043 121.501 174.062C121.501 173.063 121.744 172.295 122.231 171.758C122.722 171.221 123.429 170.952 124.353 170.952C124.98 170.952 125.544 171.069 126.045 171.301L125.664 172.316C125.13 172.109 124.69 172.005 124.342 172.005C123.315 172.005 122.801 172.687 122.801 174.051C122.801 174.717 122.928 175.219 123.182 175.555C123.44 175.888 123.816 176.055 124.31 176.055C124.872 176.055 125.404 175.915 125.905 175.636V176.737C125.68 176.869 125.438 176.964 125.18 177.021C124.926 177.079 124.616 177.107 124.251 177.107ZM129.896 177.107C128.972 177.107 128.249 176.839 127.726 176.302C127.207 175.761 126.947 175.018 126.947 174.073C126.947 173.102 127.189 172.34 127.672 171.785C128.156 171.23 128.82 170.952 129.665 170.952C130.449 170.952 131.069 171.19 131.523 171.667C131.978 172.143 132.206 172.798 132.206 173.632V174.314H128.247C128.265 174.891 128.421 175.335 128.714 175.646C129.008 175.954 129.422 176.108 129.955 176.108C130.306 176.108 130.632 176.076 130.933 176.012C131.237 175.944 131.563 175.833 131.91 175.679V176.705C131.602 176.851 131.291 176.955 130.976 177.016C130.66 177.077 130.301 177.107 129.896 177.107ZM129.665 171.908C129.264 171.908 128.942 172.035 128.698 172.29C128.458 172.544 128.315 172.914 128.269 173.401H130.965C130.958 172.911 130.84 172.54 130.61 172.29C130.381 172.035 130.066 171.908 129.665 171.908ZM137.63 175.308C137.63 175.888 137.419 176.334 136.997 176.646C136.574 176.953 135.969 177.107 135.181 177.107C134.39 177.107 133.754 176.987 133.274 176.748V175.657C133.973 175.979 134.623 176.141 135.224 176.141C136.001 176.141 136.39 175.906 136.39 175.437C136.39 175.287 136.347 175.161 136.261 175.061C136.175 174.961 136.033 174.857 135.836 174.75C135.639 174.642 135.366 174.52 135.015 174.384C134.331 174.119 133.867 173.854 133.624 173.589C133.384 173.324 133.264 172.981 133.264 172.558C133.264 172.05 133.468 171.656 133.876 171.376C134.288 171.094 134.846 170.952 135.552 170.952C136.25 170.952 136.911 171.094 137.534 171.376L137.125 172.327C136.485 172.062 135.946 171.93 135.509 171.93C134.843 171.93 134.51 172.119 134.51 172.499C134.51 172.685 134.596 172.843 134.768 172.972C134.943 173.101 135.323 173.278 135.906 173.503C136.397 173.693 136.753 173.867 136.975 174.024C137.197 174.182 137.362 174.365 137.469 174.572C137.577 174.776 137.63 175.022 137.63 175.308ZM142.991 175.308C142.991 175.888 142.779 176.334 142.357 176.646C141.934 176.953 141.329 177.107 140.542 177.107C139.75 177.107 139.115 176.987 138.635 176.748V175.657C139.333 175.979 139.983 176.141 140.584 176.141C141.361 176.141 141.75 175.906 141.75 175.437C141.75 175.287 141.707 175.161 141.621 175.061C141.535 174.961 141.394 174.857 141.197 174.75C141 174.642 140.726 174.52 140.375 174.384C139.691 174.119 139.227 173.854 138.984 173.589C138.744 173.324 138.624 172.981 138.624 172.558C138.624 172.05 138.828 171.656 139.236 171.376C139.648 171.094 140.207 170.952 140.912 170.952C141.61 170.952 142.271 171.094 142.894 171.376L142.486 172.327C141.845 172.062 141.306 171.93 140.869 171.93C140.203 171.93 139.87 172.119 139.87 172.499C139.87 172.685 139.956 172.843 140.128 172.972C140.303 173.101 140.683 173.278 141.267 173.503C141.757 173.693 142.113 173.867 142.335 174.024C142.557 174.182 142.722 174.365 142.83 174.572C142.937 174.776 142.991 175.022 142.991 175.308ZM145.623 177H144.36V171.06H145.623V177ZM144.285 169.486C144.285 169.26 144.346 169.087 144.468 168.965C144.593 168.843 144.77 168.782 145 168.782C145.222 168.782 145.393 168.843 145.515 168.965C145.64 169.087 145.703 169.26 145.703 169.486C145.703 169.701 145.64 169.871 145.515 169.996C145.393 170.118 145.222 170.179 145 170.179C144.77 170.179 144.593 170.118 144.468 169.996C144.346 169.871 144.285 169.701 144.285 169.486ZM149.436 177.107C148.695 177.107 148.117 176.839 147.701 176.302C147.286 175.765 147.078 175.011 147.078 174.041C147.078 173.067 147.288 172.309 147.707 171.769C148.129 171.224 148.713 170.952 149.458 170.952C150.238 170.952 150.833 171.24 151.241 171.817H151.305C151.244 171.391 151.214 171.054 151.214 170.807V168.643H152.481V177H151.493L151.273 176.221H151.214C150.809 176.812 150.217 177.107 149.436 177.107ZM149.774 176.087C150.294 176.087 150.671 175.942 150.908 175.652C151.144 175.358 151.266 174.884 151.273 174.229V174.051C151.273 173.303 151.151 172.771 150.908 172.456C150.664 172.141 150.283 171.983 149.764 171.983C149.32 171.983 148.978 172.164 148.738 172.526C148.498 172.884 148.378 173.396 148.378 174.062C148.378 174.721 148.494 175.224 148.727 175.571C148.96 175.915 149.309 176.087 149.774 176.087ZM158.003 177L157.75 176.173H157.708C157.421 176.535 157.133 176.782 156.843 176.914C156.553 177.043 156.18 177.107 155.726 177.107C155.142 177.107 154.685 176.95 154.356 176.635C154.03 176.32 153.867 175.874 153.867 175.297C153.867 174.685 154.095 174.223 154.549 173.912C155.004 173.6 155.697 173.43 156.628 173.401L157.654 173.369V173.052C157.654 172.673 157.564 172.39 157.385 172.204C157.21 172.014 156.936 171.919 156.563 171.919C156.259 171.919 155.967 171.964 155.688 172.053C155.409 172.143 155.14 172.248 154.882 172.37L154.474 171.468C154.796 171.299 155.149 171.172 155.532 171.086C155.915 170.997 156.277 170.952 156.617 170.952C157.373 170.952 157.942 171.117 158.325 171.446C158.712 171.776 158.905 172.293 158.905 172.999V177H158.003ZM156.123 176.141C156.581 176.141 156.948 176.014 157.224 175.759C157.503 175.501 157.643 175.142 157.643 174.68V174.164L156.88 174.196C156.286 174.218 155.853 174.318 155.581 174.497C155.312 174.673 155.178 174.943 155.178 175.308C155.178 175.573 155.257 175.779 155.414 175.926C155.572 176.069 155.808 176.141 156.123 176.141ZM162.67 177.107C161.929 177.107 161.351 176.839 160.936 176.302C160.52 175.765 160.312 175.011 160.312 174.041C160.312 173.067 160.522 172.309 160.941 171.769C161.363 171.224 161.947 170.952 162.692 170.952C163.472 170.952 164.067 171.24 164.475 171.817H164.54C164.479 171.391 164.448 171.054 164.448 170.807V168.643H165.716V177H164.728L164.507 176.221H164.448C164.044 176.812 163.451 177.107 162.67 177.107ZM163.009 176.087C163.528 176.087 163.906 175.942 164.142 175.652C164.378 175.358 164.5 174.884 164.507 174.229V174.051C164.507 173.303 164.386 172.771 164.142 172.456C163.899 172.141 163.517 171.983 162.998 171.983C162.554 171.983 162.212 172.164 161.972 172.526C161.732 172.884 161.612 173.396 161.612 174.062C161.612 174.721 161.729 175.224 161.961 175.571C162.194 175.915 162.543 176.087 163.009 176.087ZM170.115 177.107C169.191 177.107 168.468 176.839 167.945 176.302C167.426 175.761 167.166 175.018 167.166 174.073C167.166 173.102 167.408 172.34 167.891 171.785C168.375 171.23 169.039 170.952 169.884 170.952C170.668 170.952 171.287 171.19 171.742 171.667C172.197 172.143 172.424 172.798 172.424 173.632V174.314H168.466C168.484 174.891 168.639 175.335 168.933 175.646C169.227 175.954 169.64 176.108 170.174 176.108C170.525 176.108 170.851 176.076 171.151 176.012C171.456 175.944 171.782 175.833 172.129 175.679V176.705C171.821 176.851 171.509 176.955 171.194 177.016C170.879 177.077 170.519 177.107 170.115 177.107ZM169.884 171.908C169.483 171.908 169.16 172.035 168.917 172.29C168.677 172.544 168.534 172.914 168.487 173.401H171.184C171.176 172.911 171.058 172.54 170.829 172.29C170.6 172.035 170.285 171.908 169.884 171.908ZM178.719 177.107C177.978 177.107 177.4 176.839 176.984 176.302C176.569 175.765 176.361 175.011 176.361 174.041C176.361 173.067 176.571 172.309 176.99 171.769C177.412 171.224 177.996 170.952 178.741 170.952C179.521 170.952 180.116 171.24 180.524 171.817H180.588C180.528 171.391 180.497 171.054 180.497 170.807V168.643H181.765V177H180.776L180.556 176.221H180.497C180.092 176.812 179.5 177.107 178.719 177.107ZM179.058 176.087C179.577 176.087 179.955 175.942 180.191 175.652C180.427 175.358 180.549 174.884 180.556 174.229V174.051C180.556 173.303 180.434 172.771 180.191 172.456C179.947 172.141 179.566 171.983 179.047 171.983C178.603 171.983 178.261 172.164 178.021 172.526C177.781 172.884 177.661 173.396 177.661 174.062C177.661 174.721 177.778 175.224 178.01 175.571C178.243 175.915 178.592 176.087 179.058 176.087ZM186.164 177.107C185.24 177.107 184.516 176.839 183.994 176.302C183.474 175.761 183.215 175.018 183.215 174.073C183.215 173.102 183.457 172.34 183.94 171.785C184.423 171.23 185.088 170.952 185.933 170.952C186.717 170.952 187.336 171.19 187.791 171.667C188.246 172.143 188.473 172.798 188.473 173.632V174.314H184.515C184.533 174.891 184.688 175.335 184.982 175.646C185.276 175.954 185.689 176.108 186.223 176.108C186.574 176.108 186.899 176.076 187.2 176.012C187.505 175.944 187.83 175.833 188.178 175.679V176.705C187.87 176.851 187.558 176.955 187.243 177.016C186.928 177.077 186.568 177.107 186.164 177.107ZM185.933 171.908C185.532 171.908 185.209 172.035 184.966 172.29C184.726 172.544 184.583 172.914 184.536 173.401H187.232C187.225 172.911 187.107 172.54 186.878 172.29C186.649 172.035 186.334 171.908 185.933 171.908ZM196.24 170.136C195.502 170.136 194.922 170.397 194.5 170.92C194.077 171.443 193.866 172.164 193.866 173.084C193.866 174.048 194.068 174.776 194.473 175.271C194.881 175.765 195.47 176.012 196.24 176.012C196.573 176.012 196.895 175.979 197.207 175.915C197.518 175.847 197.842 175.761 198.179 175.657V176.758C197.563 176.991 196.865 177.107 196.084 177.107C194.935 177.107 194.052 176.76 193.436 176.065C192.82 175.367 192.512 174.37 192.512 173.074C192.512 172.257 192.661 171.543 192.958 170.931C193.259 170.318 193.692 169.849 194.258 169.523C194.824 169.198 195.488 169.035 196.25 169.035C197.053 169.035 197.794 169.203 198.474 169.54L198.012 170.608C197.747 170.483 197.466 170.374 197.169 170.281C196.875 170.184 196.566 170.136 196.24 170.136ZM203.453 177L203.201 176.173H203.158C202.871 176.535 202.583 176.782 202.293 176.914C202.003 177.043 201.631 177.107 201.176 177.107C200.592 177.107 200.136 176.95 199.806 176.635C199.48 176.32 199.317 175.874 199.317 175.297C199.317 174.685 199.545 174.223 200 173.912C200.454 173.6 201.147 173.43 202.078 173.401L203.104 173.369V173.052C203.104 172.673 203.014 172.39 202.835 172.204C202.66 172.014 202.386 171.919 202.014 171.919C201.709 171.919 201.417 171.964 201.138 172.053C200.859 172.143 200.59 172.248 200.333 172.37L199.924 171.468C200.247 171.299 200.599 171.172 200.982 171.086C201.366 170.997 201.727 170.952 202.067 170.952C202.823 170.952 203.392 171.117 203.775 171.446C204.162 171.776 204.355 172.293 204.355 172.999V177H203.453ZM201.573 176.141C202.032 176.141 202.399 176.014 202.674 175.759C202.954 175.501 203.093 175.142 203.093 174.68V174.164L202.331 174.196C201.736 174.218 201.303 174.318 201.031 174.497C200.762 174.673 200.628 174.943 200.628 175.308C200.628 175.573 200.707 175.779 200.864 175.926C201.022 176.069 201.258 176.141 201.573 176.141ZM207.379 177H206.117V171.06H207.379V177ZM206.042 169.486C206.042 169.26 206.103 169.087 206.225 168.965C206.35 168.843 206.527 168.782 206.756 168.782C206.978 168.782 207.15 168.843 207.272 168.965C207.397 169.087 207.46 169.26 207.46 169.486C207.46 169.701 207.397 169.871 207.272 169.996C207.15 170.118 206.978 170.179 206.756 170.179C206.527 170.179 206.35 170.118 206.225 169.996C206.103 169.871 206.042 169.701 206.042 169.486ZM210.511 173.965L208.518 171.06H209.958L211.311 173.138L212.675 171.06H214.104L212.106 173.965L214.206 177H212.777L211.311 174.776L209.85 177H208.421L210.511 173.965ZM218.965 177L218.712 176.173H218.669C218.383 176.535 218.095 176.782 217.805 176.914C217.515 177.043 217.142 177.107 216.688 177.107C216.104 177.107 215.647 176.95 215.318 176.635C214.992 176.32 214.829 175.874 214.829 175.297C214.829 174.685 215.056 174.223 215.511 173.912C215.966 173.6 216.659 173.43 217.59 173.401L218.616 173.369V173.052C218.616 172.673 218.526 172.39 218.347 172.204C218.172 172.014 217.898 171.919 217.525 171.919C217.221 171.919 216.929 171.964 216.65 172.053C216.371 172.143 216.102 172.248 215.844 172.37L215.436 171.468C215.758 171.299 216.111 171.172 216.494 171.086C216.877 170.997 217.239 170.952 217.579 170.952C218.335 170.952 218.904 171.117 219.287 171.446C219.674 171.776 219.867 172.293 219.867 172.999V177H218.965ZM217.085 176.141C217.543 176.141 217.91 176.014 218.186 175.759C218.465 175.501 218.605 175.142 218.605 174.68V174.164L217.842 174.196C217.248 174.218 216.815 174.318 216.542 174.497C216.274 174.673 216.14 174.943 216.14 175.308C216.14 175.573 216.218 175.779 216.376 175.926C216.534 176.069 216.77 176.141 217.085 176.141Z" fill="#1B1B1B"/>
<defs>
<filter id="filter0_d" x="248" y="36" width="36" height="69" filterUnits="userSpaceOnUse" color-interpolation-filters="sRGB">
<feFlood flood-opacity="0" result="BackgroundImageFix"/>
<feColorMatrix in="SourceAlpha" type="matrix" values="0 0 0 0 0 0 0 0 0 0 0 0 0 0 0 0 0 0 127 0"/>
<feOffset dx="-4" dy="2"/>
<feGaussianBlur stdDeviation="2"/>
<feColorMatrix type="matrix" values="0 0 0 0 0.105882 0 0 0 0 0.105882 0 0 0 0 0.105882 0 0 0 0.3 0"/>
<feBlend mode="normal" in2="BackgroundImageFix" result="effect1_dropShadow"/>
<feBlend mode="normal" in="SourceGraphic" in2="effect1_dropShadow" result="shape"/>
</filter>
<filter id="filter1_d" x="268" y="60" width="36" height="45" filterUnits="userSpaceOnUse" color-interpolation-filters="sRGB">
<feFlood flood-opacity="0" result="BackgroundImageFix"/>
<feColorMatrix in="SourceAlpha" type="matrix" values="0 0 0 0 0 0 0 0 0 0 0 0 0 0 0 0 0 0 127 0"/>
<feOffset dx="-4" dy="2"/>
<feGaussianBlur stdDeviation="2"/>
<feColorMatrix type="matrix" values="0 0 0 0 0.105882 0 0 0 0 0.105882 0 0 0 0 0.105882 0 0 0 0.3 0"/>
<feBlend mode="normal" in2="BackgroundImageFix" result="effect1_dropShadow"/>
<feBlend mode="normal" in="SourceGraphic" in2="effect1_dropShadow" result="shape"/>
</filter>
<filter id="filter2_d" x="156" y="14" width="36" height="91" filterUnits="userSpaceOnUse" color-interpolation-filters="sRGB">
<feFlood flood-opacity="0" result="BackgroundImageFix"/>
<feColorMatrix in="SourceAlpha" type="matrix" values="0 0 0 0 0 0 0 0 0 0 0 0 0 0 0 0 0 0 127 0"/>
<feOffset dx="-4" dy="2"/>
<feGaussianBlur stdDeviation="2"/>
<feColorMatrix type="matrix" values="0 0 0 0 0.105882 0 0 0 0 0.105882 0 0 0 0 0.105882 0 0 0 0.3 0"/>
<feBlend mode="normal" in2="BackgroundImageFix" result="effect1_dropShadow"/>
<feBlend mode="normal" in="SourceGraphic" in2="effect1_dropShadow" result="shape"/>
</filter>
<filter id="filter3_d" x="176" y="73" width="36" height="32" filterUnits="userSpaceOnUse" color-interpolation-filters="sRGB">
<feFlood flood-opacity="0" result="BackgroundImageFix"/>
<feColorMatrix in="SourceAlpha" type="matrix" values="0 0 0 0 0 0 0 0 0 0 0 0 0 0 0 0 0 0 127 0"/>
<feOffset dx="-4" dy="2"/>
<feGaussianBlur stdDeviation="2"/>
<feColorMatrix type="matrix" values="0 0 0 0 0.105882 0 0 0 0 0.105882 0 0 0 0 0.105882 0 0 0 0.3 0"/>
<feBlend mode="normal" in2="BackgroundImageFix" result="effect1_dropShadow"/>
<feBlend mode="normal" in="SourceGraphic" in2="effect1_dropShadow" result="shape"/>
</filter>
<filter id="filter4_d" x="64" y="66" width="36" height="39" filterUnits="userSpaceOnUse" color-interpolation-filters="sRGB">
<feFlood flood-opacity="0" result="BackgroundImageFix"/>
<feColorMatrix in="SourceAlpha" type="matrix" values="0 0 0 0 0 0 0 0 0 0 0 0 0 0 0 0 0 0 127 0"/>
<feOffset dx="-4" dy="2"/>
<feGaussianBlur stdDeviation="2"/>
<feColorMatrix type="matrix" values="0 0 0 0 0.105882 0 0 0 0 0.105882 0 0 0 0 0.105882 0 0 0 0.3 0"/>
<feBlend mode="normal" in2="BackgroundImageFix" result="effect1_dropShadow"/>
<feBlend mode="normal" in="SourceGraphic" in2="effect1_dropShadow" result="shape"/>
</filter>
<filter id="filter5_d" x="84" y="62.4263" width="36" height="42.5738" filterUnits="userSpaceOnUse" color-interpolation-filters="sRGB">
<feFlood flood-opacity="0" result="BackgroundImageFix"/>
<feColorMatrix in="SourceAlpha" type="matrix" values="0 0 0 0 0 0 0 0 0 0 0 0 0 0 0 0 0 0 127 0"/>
<feOffset dx="-4" dy="2"/>
<feGaussianBlur stdDeviation="2"/>
<feColorMatrix type="matrix" values="0 0 0 0 0.105882 0 0 0 0 0.105882 0 0 0 0 0.105882 0 0 0 0.3 0"/>
<feBlend mode="normal" in2="BackgroundImageFix" result="effect1_dropShadow"/>
<feBlend mode="normal" in="SourceGraphic" in2="effect1_dropShadow" result="shape"/>
</filter>
<filter id="filter6_d" x="-28" y="66.5737" width="36" height="39" filterUnits="userSpaceOnUse" color-interpolation-filters="sRGB">
<feFlood flood-opacity="0" result="BackgroundImageFix"/>
<feColorMatrix in="SourceAlpha" type="matrix" values="0 0 0 0 0 0 0 0 0 0 0 0 0 0 0 0 0 0 127 0"/>
<feOffset dx="-4" dy="2"/>
<feGaussianBlur stdDeviation="2"/>
<feColorMatrix type="matrix" values="0 0 0 0 0.105882 0 0 0 0 0.105882 0 0 0 0 0.105882 0 0 0 0.3 0"/>
<feBlend mode="normal" in2="BackgroundImageFix" result="effect1_dropShadow"/>
<feBlend mode="normal" in="SourceGraphic" in2="effect1_dropShadow" result="shape"/>
</filter>
<filter id="filter7_d" x="-8" y="63" width="36" height="42.5738" filterUnits="userSpaceOnUse" color-interpolation-filters="sRGB">
<feFlood flood-opacity="0" result="BackgroundImageFix"/>
<feColorMatrix in="SourceAlpha" type="matrix" values="0 0 0 0 0 0 0 0 0 0 0 0 0 0 0 0 0 0 127 0"/>
<feOffset dx="-4" dy="2"/>
<feGaussianBlur stdDeviation="2"/>
<feColorMatrix type="matrix" values="0 0 0 0 0.105882 0 0 0 0 0.105882 0 0 0 0 0.105882 0 0 0 0.3 0"/>
<feBlend mode="normal" in2="BackgroundImageFix" result="effect1_dropShadow"/>
<feBlend mode="normal" in="SourceGraphic" in2="effect1_dropShadow" result="shape"/>
</filter>
<filter id="filter8_d" x="16" y="165" width="21" height="21" filterUnits="userSpaceOnUse" color-interpolation-filters="sRGB">
<feFlood flood-opacity="0" result="BackgroundImageFix"/>
<feColorMatrix in="SourceAlpha" type="matrix" values="0 0 0 0 0 0 0 0 0 0 0 0 0 0 0 0 0 0 127 0"/>
<feOffset dy="4"/>
<feGaussianBlur stdDeviation="2"/>
<feColorMatrix type="matrix" values="0 0 0 0 0 0 0 0 0 0 0 0 0 0 0 0 0 0 0.25 0"/>
<feBlend mode="normal" in2="BackgroundImageFix" result="effect1_dropShadow"/>
<feBlend mode="normal" in="SourceGraphic" in2="effect1_dropShadow" result="shape"/>
</filter>
<filter id="filter9_d" x="86" y="166" width="21" height="21" filterUnits="userSpaceOnUse" color-interpolation-filters="sRGB">
<feFlood flood-opacity="0" result="BackgroundImageFix"/>
<feColorMatrix in="SourceAlpha" type="matrix" values="0 0 0 0 0 0 0 0 0 0 0 0 0 0 0 0 0 0 127 0"/>
<feOffset dy="4"/>
<feGaussianBlur stdDeviation="2"/>
<feColorMatrix type="matrix" values="0 0 0 0 0 0 0 0 0 0 0 0 0 0 0 0 0 0 0.25 0"/>
<feBlend mode="normal" in2="BackgroundImageFix" result="effect1_dropShadow"/>
<feBlend mode="normal" in="SourceGraphic" in2="effect1_dropShadow" result="shape"/>
</filter>
</defs>
</svg>
