<svg width="291" height="200" viewBox="0 0 291 200" fill="none" xmlns="http://www.w3.org/2000/svg">
<circle cx="158" cy="80" r="80" fill="#4DE988"/>
<path d="M138.252 84.9287H137.049V87H134.984V84.9287H130.719V83.459L135.101 77.0059H137.049V83.2881H138.252V84.9287ZM134.984 83.2881V81.5928C134.984 81.3102 134.996 80.9001 135.019 80.3623C135.041 79.8245 135.06 79.5124 135.073 79.4258H135.019C134.85 79.7995 134.647 80.1641 134.41 80.5195L132.578 83.2881H134.984ZM139.277 86.0225C139.277 85.6396 139.38 85.3503 139.585 85.1543C139.79 84.9583 140.089 84.8604 140.48 84.8604C140.859 84.8604 141.15 84.9606 141.355 85.1611C141.565 85.3617 141.67 85.6488 141.67 86.0225C141.67 86.3825 141.565 86.6673 141.355 86.877C141.146 87.082 140.854 87.1846 140.48 87.1846C140.098 87.1846 139.801 87.0843 139.592 86.8838C139.382 86.6787 139.277 86.3916 139.277 86.0225ZM149.962 82.0029C149.962 83.7484 149.675 85.0404 149.101 85.8789C148.531 86.7174 147.651 87.1367 146.462 87.1367C145.309 87.1367 144.438 86.7038 143.851 85.8379C143.267 84.972 142.976 83.6937 142.976 82.0029C142.976 80.2393 143.26 78.9404 143.83 78.1064C144.4 77.2679 145.277 76.8486 146.462 76.8486C147.615 76.8486 148.485 77.2861 149.073 78.1611C149.666 79.0361 149.962 80.3167 149.962 82.0029ZM145.074 82.0029C145.074 83.2288 145.179 84.1084 145.389 84.6416C145.603 85.1702 145.961 85.4346 146.462 85.4346C146.954 85.4346 147.31 85.1657 147.528 84.6279C147.747 84.0902 147.856 83.2152 147.856 82.0029C147.856 80.777 147.745 79.8975 147.521 79.3643C147.303 78.8265 146.95 78.5576 146.462 78.5576C145.965 78.5576 145.61 78.8265 145.396 79.3643C145.181 79.8975 145.074 80.777 145.074 82.0029ZM157.96 82.0029C157.96 83.7484 157.673 85.0404 157.099 85.8789C156.529 86.7174 155.649 87.1367 154.46 87.1367C153.307 87.1367 152.437 86.7038 151.849 85.8379C151.265 84.972 150.974 83.6937 150.974 82.0029C150.974 80.2393 151.258 78.9404 151.828 78.1064C152.398 77.2679 153.275 76.8486 154.46 76.8486C155.613 76.8486 156.483 77.2861 157.071 78.1611C157.664 79.0361 157.96 80.3167 157.96 82.0029ZM153.072 82.0029C153.072 83.2288 153.177 84.1084 153.387 84.6416C153.601 85.1702 153.959 85.4346 154.46 85.4346C154.952 85.4346 155.308 85.1657 155.526 84.6279C155.745 84.0902 155.854 83.2152 155.854 82.0029C155.854 80.777 155.743 79.8975 155.52 79.3643C155.301 78.8265 154.948 78.5576 154.46 78.5576C153.963 78.5576 153.608 78.8265 153.394 79.3643C153.179 79.8975 153.072 80.777 153.072 82.0029ZM165.958 82.0029C165.958 83.7484 165.671 85.0404 165.097 85.8789C164.527 86.7174 163.647 87.1367 162.458 87.1367C161.305 87.1367 160.435 86.7038 159.847 85.8379C159.263 84.972 158.972 83.6937 158.972 82.0029C158.972 80.2393 159.257 78.9404 159.826 78.1064C160.396 77.2679 161.273 76.8486 162.458 76.8486C163.611 76.8486 164.481 77.2861 165.069 78.1611C165.662 79.0361 165.958 80.3167 165.958 82.0029ZM161.07 82.0029C161.07 83.2288 161.175 84.1084 161.385 84.6416C161.599 85.1702 161.957 85.4346 162.458 85.4346C162.95 85.4346 163.306 85.1657 163.524 84.6279C163.743 84.0902 163.853 83.2152 163.853 82.0029C163.853 80.777 163.741 79.8975 163.518 79.3643C163.299 78.8265 162.946 78.5576 162.458 78.5576C161.961 78.5576 161.606 78.8265 161.392 79.3643C161.177 79.8975 161.07 80.777 161.07 82.0029ZM169.602 85.5303C169.365 86.4508 168.964 87.5423 168.398 88.8047H166.895C167.191 87.5924 167.421 86.4486 167.585 85.373H169.499L169.602 85.5303ZM178.017 82.0029C178.017 83.7484 177.729 85.0404 177.155 85.8789C176.586 86.7174 175.706 87.1367 174.517 87.1367C173.364 87.1367 172.493 86.7038 171.905 85.8379C171.322 84.972 171.03 83.6937 171.03 82.0029C171.03 80.2393 171.315 78.9404 171.885 78.1064C172.454 77.2679 173.332 76.8486 174.517 76.8486C175.67 76.8486 176.54 77.2861 177.128 78.1611C177.72 79.0361 178.017 80.3167 178.017 82.0029ZM173.129 82.0029C173.129 83.2288 173.234 84.1084 173.443 84.6416C173.658 85.1702 174.015 85.4346 174.517 85.4346C175.009 85.4346 175.364 85.1657 175.583 84.6279C175.802 84.0902 175.911 83.2152 175.911 82.0029C175.911 80.777 175.799 79.8975 175.576 79.3643C175.357 78.8265 175.004 78.5576 174.517 78.5576C174.02 78.5576 173.664 78.8265 173.45 79.3643C173.236 79.8975 173.129 80.777 173.129 82.0029ZM186.015 82.0029C186.015 83.7484 185.728 85.0404 185.153 85.8789C184.584 86.7174 183.704 87.1367 182.515 87.1367C181.362 87.1367 180.491 86.7038 179.903 85.8379C179.32 84.972 179.028 83.6937 179.028 82.0029C179.028 80.2393 179.313 78.9404 179.883 78.1064C180.452 77.2679 181.33 76.8486 182.515 76.8486C183.668 76.8486 184.538 77.2861 185.126 78.1611C185.718 79.0361 186.015 80.3167 186.015 82.0029ZM181.127 82.0029C181.127 83.2288 181.232 84.1084 181.441 84.6416C181.656 85.1702 182.013 85.4346 182.515 85.4346C183.007 85.4346 183.362 85.1657 183.581 84.6279C183.8 84.0902 183.909 83.2152 183.909 82.0029C183.909 80.777 183.798 79.8975 183.574 79.3643C183.355 78.8265 183.002 78.5576 182.515 78.5576C182.018 78.5576 181.662 78.8265 181.448 79.3643C181.234 79.8975 181.127 80.777 181.127 82.0029Z" fill="white"/>
<circle cx="40" cy="160" r="40" fill="#FFA05B"/>
<path d="M20.4888 165H14.0015V163.635L16.3311 161.28C17.0208 160.574 17.4715 160.085 17.6831 159.814C17.8947 159.539 18.047 159.285 18.1401 159.052C18.2332 158.819 18.2798 158.578 18.2798 158.329C18.2798 157.956 18.1761 157.679 17.9688 157.497C17.7656 157.315 17.4927 157.224 17.1499 157.224C16.7902 157.224 16.4411 157.307 16.1025 157.472C15.764 157.637 15.4106 157.872 15.0425 158.176L13.9761 156.913C14.4331 156.524 14.8118 156.249 15.1123 156.088C15.4128 155.927 15.7407 155.804 16.0962 155.72C16.4517 155.631 16.8494 155.586 17.2896 155.586C17.8693 155.586 18.3813 155.692 18.8257 155.904C19.27 156.115 19.6149 156.412 19.8604 156.792C20.1058 157.173 20.2285 157.609 20.2285 158.1C20.2285 158.528 20.1523 158.93 20 159.306C19.8519 159.679 19.6191 160.062 19.3018 160.455C18.9886 160.849 18.4342 161.409 17.6387 162.137L16.4453 163.261V163.35H20.4888V165ZM21.6504 164.092C21.6504 163.737 21.7456 163.468 21.936 163.286C22.1265 163.104 22.4036 163.013 22.7676 163.013C23.1188 163.013 23.3896 163.106 23.5801 163.292C23.7747 163.479 23.8721 163.745 23.8721 164.092C23.8721 164.427 23.7747 164.691 23.5801 164.886C23.3854 165.076 23.1146 165.171 22.7676 165.171C22.4121 165.171 22.137 165.078 21.9424 164.892C21.7477 164.702 21.6504 164.435 21.6504 164.092ZM31.5718 160.36C31.5718 161.981 31.3052 163.18 30.772 163.959C30.243 164.738 29.4263 165.127 28.3218 165.127C27.2511 165.127 26.4429 164.725 25.897 163.921C25.3553 163.117 25.0845 161.93 25.0845 160.36C25.0845 158.722 25.349 157.516 25.8779 156.742C26.4069 155.963 27.2215 155.574 28.3218 155.574C29.3924 155.574 30.2007 155.98 30.7466 156.792C31.2967 157.605 31.5718 158.794 31.5718 160.36ZM27.0332 160.36C27.0332 161.498 27.1305 162.315 27.3252 162.81C27.5241 163.301 27.8563 163.546 28.3218 163.546C28.7788 163.546 29.1089 163.297 29.312 162.797C29.5151 162.298 29.6167 161.486 29.6167 160.36C29.6167 159.222 29.513 158.405 29.3057 157.91C29.1025 157.41 28.7746 157.161 28.3218 157.161C27.8605 157.161 27.5304 157.41 27.3315 157.91C27.1326 158.405 27.0332 159.222 27.0332 160.36ZM38.9985 160.36C38.9985 161.981 38.7319 163.18 38.1987 163.959C37.6698 164.738 36.853 165.127 35.7485 165.127C34.6779 165.127 33.8696 164.725 33.3237 163.921C32.7821 163.117 32.5112 161.93 32.5112 160.36C32.5112 158.722 32.7757 157.516 33.3047 156.742C33.8337 155.963 34.6483 155.574 35.7485 155.574C36.8192 155.574 37.6274 155.98 38.1733 156.792C38.7235 157.605 38.9985 158.794 38.9985 160.36ZM34.46 160.36C34.46 161.498 34.5573 162.315 34.752 162.81C34.9508 163.301 35.283 163.546 35.7485 163.546C36.2056 163.546 36.5356 163.297 36.7388 162.797C36.9419 162.298 37.0435 161.486 37.0435 160.36C37.0435 159.222 36.9398 158.405 36.7324 157.91C36.5293 157.41 36.2013 157.161 35.7485 157.161C35.2873 157.161 34.9572 157.41 34.7583 157.91C34.5594 158.405 34.46 159.222 34.46 160.36ZM46.4253 160.36C46.4253 161.981 46.1587 163.18 45.6255 163.959C45.0965 164.738 44.2798 165.127 43.1753 165.127C42.1047 165.127 41.2964 164.725 40.7505 163.921C40.2088 163.117 39.938 161.93 39.938 160.36C39.938 158.722 40.2025 157.516 40.7314 156.742C41.2604 155.963 42.075 155.574 43.1753 155.574C44.2459 155.574 45.0542 155.98 45.6001 156.792C46.1502 157.605 46.4253 158.794 46.4253 160.36ZM41.8867 160.36C41.8867 161.498 41.984 162.315 42.1787 162.81C42.3776 163.301 42.7098 163.546 43.1753 163.546C43.6323 163.546 43.9624 163.297 44.1655 162.797C44.3687 162.298 44.4702 161.486 44.4702 160.36C44.4702 159.222 44.3665 158.405 44.1592 157.91C43.9561 157.41 43.6281 157.161 43.1753 157.161C42.714 157.161 42.384 157.41 42.1851 157.91C41.9862 158.405 41.8867 159.222 41.8867 160.36ZM49.8086 163.635C49.5885 164.49 49.2161 165.504 48.6914 166.676H47.2949C47.57 165.55 47.7837 164.488 47.936 163.489H49.7134L49.8086 163.635ZM57.6226 160.36C57.6226 161.981 57.356 163.18 56.8228 163.959C56.2938 164.738 55.4771 165.127 54.3726 165.127C53.3019 165.127 52.4937 164.725 51.9478 163.921C51.4061 163.117 51.1353 161.93 51.1353 160.36C51.1353 158.722 51.3997 157.516 51.9287 156.742C52.4577 155.963 53.2723 155.574 54.3726 155.574C55.4432 155.574 56.2515 155.98 56.7974 156.792C57.3475 157.605 57.6226 158.794 57.6226 160.36ZM53.084 160.36C53.084 161.498 53.1813 162.315 53.376 162.81C53.5749 163.301 53.9071 163.546 54.3726 163.546C54.8296 163.546 55.1597 163.297 55.3628 162.797C55.5659 162.298 55.6675 161.486 55.6675 160.36C55.6675 159.222 55.5638 158.405 55.3564 157.91C55.1533 157.41 54.8254 157.161 54.3726 157.161C53.9113 157.161 53.5812 157.41 53.3823 157.91C53.1834 158.405 53.084 159.222 53.084 160.36ZM65.0493 160.36C65.0493 161.981 64.7827 163.18 64.2495 163.959C63.7205 164.738 62.9038 165.127 61.7993 165.127C60.7287 165.127 59.9204 164.725 59.3745 163.921C58.8328 163.117 58.562 161.93 58.562 160.36C58.562 158.722 58.8265 157.516 59.3555 156.742C59.8844 155.963 60.6991 155.574 61.7993 155.574C62.87 155.574 63.6782 155.98 64.2241 156.792C64.7743 157.605 65.0493 158.794 65.0493 160.36ZM60.5107 160.36C60.5107 161.498 60.6081 162.315 60.8027 162.81C61.0016 163.301 61.3338 163.546 61.7993 163.546C62.2563 163.546 62.5864 163.297 62.7896 162.797C62.9927 162.298 63.0942 161.486 63.0942 160.36C63.0942 159.222 62.9906 158.405 62.7832 157.91C62.5801 157.41 62.2521 157.161 61.7993 157.161C61.3381 157.161 61.008 157.41 60.8091 157.91C60.6102 158.405 60.5107 159.222 60.5107 160.36Z" fill="white"/>
<circle cx="269" cy="35" r="22" fill="#F76263"/>
<path d="M250.664 36.3613C250.664 34.666 251.021 33.4043 251.736 32.5762C252.455 31.748 253.529 31.334 254.959 31.334C255.447 31.334 255.83 31.3633 256.107 31.4219V32.8691C255.76 32.791 255.416 32.752 255.076 32.752C254.455 32.752 253.947 32.8457 253.553 33.0332C253.162 33.2207 252.869 33.498 252.674 33.8652C252.479 34.2324 252.363 34.7539 252.328 35.4297H252.404C252.791 34.7656 253.41 34.4336 254.262 34.4336C255.027 34.4336 255.627 34.6738 256.061 35.1543C256.494 35.6348 256.711 36.2988 256.711 37.1465C256.711 38.0605 256.453 38.7852 255.938 39.3203C255.422 39.8516 254.707 40.1172 253.793 40.1172C253.16 40.1172 252.607 39.9707 252.135 39.6777C251.666 39.3848 251.303 38.957 251.045 38.3945C250.791 37.832 250.664 37.1543 250.664 36.3613ZM253.758 38.6699C254.145 38.6699 254.441 38.541 254.648 38.2832C254.855 38.0215 254.959 37.6504 254.959 37.1699C254.959 36.752 254.861 36.4238 254.666 36.1855C254.475 35.9434 254.184 35.8223 253.793 35.8223C253.426 35.8223 253.111 35.9414 252.85 36.1797C252.592 36.418 252.463 36.6953 252.463 37.0117C252.463 37.4766 252.584 37.8691 252.826 38.1895C253.072 38.5098 253.383 38.6699 253.758 38.6699ZM257.52 36.3613C257.52 34.666 257.877 33.4043 258.592 32.5762C259.311 31.748 260.385 31.334 261.814 31.334C262.303 31.334 262.686 31.3633 262.963 31.4219V32.8691C262.615 32.791 262.271 32.752 261.932 32.752C261.311 32.752 260.803 32.8457 260.408 33.0332C260.018 33.2207 259.725 33.498 259.529 33.8652C259.334 34.2324 259.219 34.7539 259.184 35.4297H259.26C259.646 34.7656 260.266 34.4336 261.117 34.4336C261.883 34.4336 262.482 34.6738 262.916 35.1543C263.35 35.6348 263.566 36.2988 263.566 37.1465C263.566 38.0605 263.309 38.7852 262.793 39.3203C262.277 39.8516 261.562 40.1172 260.648 40.1172C260.016 40.1172 259.463 39.9707 258.99 39.6777C258.521 39.3848 258.158 38.957 257.9 38.3945C257.646 37.832 257.52 37.1543 257.52 36.3613ZM260.613 38.6699C261 38.6699 261.297 38.541 261.504 38.2832C261.711 38.0215 261.814 37.6504 261.814 37.1699C261.814 36.752 261.717 36.4238 261.521 36.1855C261.33 35.9434 261.039 35.8223 260.648 35.8223C260.281 35.8223 259.967 35.9414 259.705 36.1797C259.447 36.418 259.318 36.6953 259.318 37.0117C259.318 37.4766 259.439 37.8691 259.682 38.1895C259.928 38.5098 260.238 38.6699 260.613 38.6699ZM270.375 35.7168C270.375 37.2129 270.129 38.3203 269.637 39.0391C269.148 39.7578 268.395 40.1172 267.375 40.1172C266.387 40.1172 265.641 39.7461 265.137 39.0039C264.637 38.2617 264.387 37.166 264.387 35.7168C264.387 34.2051 264.631 33.0918 265.119 32.377C265.607 31.6582 266.359 31.2988 267.375 31.2988C268.363 31.2988 269.109 31.6738 269.613 32.4238C270.121 33.1738 270.375 34.2715 270.375 35.7168ZM266.186 35.7168C266.186 36.7676 266.275 37.5215 266.455 37.9785C266.639 38.4316 266.945 38.6582 267.375 38.6582C267.797 38.6582 268.102 38.4277 268.289 37.9668C268.477 37.5059 268.57 36.7559 268.57 35.7168C268.57 34.666 268.475 33.9121 268.283 33.4551C268.096 32.9941 267.793 32.7637 267.375 32.7637C266.949 32.7637 266.645 32.9941 266.461 33.4551C266.277 33.9121 266.186 34.666 266.186 35.7168ZM273.498 38.7402C273.295 39.5293 272.951 40.4648 272.467 41.5469H271.178C271.432 40.5078 271.629 39.5273 271.77 38.6055H273.41L273.498 38.7402ZM280.711 35.7168C280.711 37.2129 280.465 38.3203 279.973 39.0391C279.484 39.7578 278.73 40.1172 277.711 40.1172C276.723 40.1172 275.977 39.7461 275.473 39.0039C274.973 38.2617 274.723 37.166 274.723 35.7168C274.723 34.2051 274.967 33.0918 275.455 32.377C275.943 31.6582 276.695 31.2988 277.711 31.2988C278.699 31.2988 279.445 31.6738 279.949 32.4238C280.457 33.1738 280.711 34.2715 280.711 35.7168ZM276.521 35.7168C276.521 36.7676 276.611 37.5215 276.791 37.9785C276.975 38.4316 277.281 38.6582 277.711 38.6582C278.133 38.6582 278.438 38.4277 278.625 37.9668C278.812 37.5059 278.906 36.7559 278.906 35.7168C278.906 34.666 278.811 33.9121 278.619 33.4551C278.432 32.9941 278.129 32.7637 277.711 32.7637C277.285 32.7637 276.98 32.9941 276.797 33.4551C276.613 33.9121 276.521 34.666 276.521 35.7168ZM287.566 35.7168C287.566 37.2129 287.32 38.3203 286.828 39.0391C286.34 39.7578 285.586 40.1172 284.566 40.1172C283.578 40.1172 282.832 39.7461 282.328 39.0039C281.828 38.2617 281.578 37.166 281.578 35.7168C281.578 34.2051 281.822 33.0918 282.311 32.377C282.799 31.6582 283.551 31.2988 284.566 31.2988C285.555 31.2988 286.301 31.6738 286.805 32.4238C287.312 33.1738 287.566 34.2715 287.566 35.7168ZM283.377 35.7168C283.377 36.7676 283.467 37.5215 283.646 37.9785C283.83 38.4316 284.137 38.6582 284.566 38.6582C284.988 38.6582 285.293 38.4277 285.48 37.9668C285.668 37.5059 285.762 36.7559 285.762 35.7168C285.762 34.666 285.666 33.9121 285.475 33.4551C285.287 32.9941 284.984 32.7637 284.566 32.7637C284.141 32.7637 283.836 32.9941 283.652 33.4551C283.469 33.9121 283.377 34.666 283.377 35.7168Z" fill="white"/>
</svg>
