<svg width="375" height="272" viewBox="0 0 375 272" fill="none" xmlns="http://www.w3.org/2000/svg">
<path d="M302.615 235H299.899V229.454H294.811V235H292.086V222.15H294.811V227.187H299.899V222.15H302.615V235ZM307.792 230.069C307.792 231.042 307.95 231.777 308.267 232.275C308.589 232.773 309.11 233.022 309.831 233.022C310.546 233.022 311.059 232.776 311.369 232.284C311.686 231.786 311.844 231.048 311.844 230.069C311.844 229.097 311.686 228.367 311.369 227.881C311.053 227.395 310.534 227.151 309.813 227.151C309.099 227.151 308.583 227.395 308.267 227.881C307.95 228.361 307.792 229.091 307.792 230.069ZM314.586 230.069C314.586 231.669 314.164 232.92 313.32 233.822C312.477 234.725 311.302 235.176 309.796 235.176C308.853 235.176 308.021 234.971 307.3 234.561C306.579 234.145 306.025 233.55 305.639 232.776C305.252 232.003 305.059 231.101 305.059 230.069C305.059 228.464 305.478 227.216 306.315 226.325C307.153 225.435 308.331 224.989 309.849 224.989C310.792 224.989 311.624 225.194 312.345 225.604C313.065 226.015 313.619 226.604 314.006 227.371C314.393 228.139 314.586 229.038 314.586 230.069ZM316.01 239.324C315.324 239.324 314.735 239.251 314.243 239.104V236.995C314.653 237.106 315.072 237.162 315.5 237.162C315.951 237.162 316.279 237.036 316.484 236.784C316.695 236.532 316.801 236.16 316.801 235.668V225.174H319.481V236.063C319.481 237.106 319.18 237.909 318.576 238.472C317.973 239.04 317.117 239.324 316.01 239.324ZM316.687 222.634C316.687 221.761 317.173 221.324 318.146 221.324C319.118 221.324 319.604 221.761 319.604 222.634C319.604 223.05 319.481 223.375 319.235 223.609C318.995 223.838 318.632 223.952 318.146 223.952C317.173 223.952 316.687 223.513 316.687 222.634ZM326.372 226.896C325.804 226.896 325.358 227.078 325.036 227.441C324.714 227.799 324.529 228.309 324.482 228.971H328.244C328.232 228.309 328.06 227.799 327.726 227.441C327.392 227.078 326.94 226.896 326.372 226.896ZM326.75 235.176C325.168 235.176 323.932 234.739 323.041 233.866C322.15 232.993 321.705 231.757 321.705 230.157C321.705 228.511 322.115 227.239 322.936 226.343C323.762 225.44 324.901 224.989 326.354 224.989C327.743 224.989 328.824 225.385 329.598 226.176C330.371 226.967 330.758 228.06 330.758 229.454V230.755H324.421C324.45 231.517 324.676 232.111 325.098 232.539C325.52 232.967 326.111 233.181 326.873 233.181C327.465 233.181 328.024 233.119 328.552 232.996C329.079 232.873 329.63 232.677 330.204 232.407V234.481C329.735 234.716 329.234 234.889 328.701 235C328.168 235.117 327.518 235.176 326.75 235.176Z" fill="#1B1B1B"/>
<path d="M206.57 228.273C206.57 230.102 206.107 231.539 205.18 232.586C204.258 233.633 202.974 234.156 201.328 234.156C199.646 234.156 198.346 233.643 197.43 232.617C196.518 231.586 196.062 230.133 196.062 228.258C196.062 226.398 196.521 224.958 197.438 223.938C198.354 222.911 199.656 222.398 201.344 222.398C202.984 222.398 204.266 222.919 205.188 223.961C206.109 225.003 206.57 226.44 206.57 228.273ZM197.469 228.273C197.469 229.82 197.797 230.995 198.453 231.797C199.115 232.594 200.073 232.992 201.328 232.992C202.594 232.992 203.549 232.594 204.195 231.797C204.841 231 205.164 229.826 205.164 228.273C205.164 226.737 204.841 225.573 204.195 224.781C203.555 223.984 202.604 223.586 201.344 223.586C200.078 223.586 199.115 223.987 198.453 224.789C197.797 225.586 197.469 226.747 197.469 228.273ZM214.789 234V228.461C214.789 227.763 214.63 227.242 214.312 226.898C213.995 226.555 213.497 226.383 212.82 226.383C211.924 226.383 211.268 226.625 210.852 227.109C210.435 227.594 210.227 228.393 210.227 229.508V234H208.93V225.438H209.984L210.195 226.609H210.258C210.523 226.188 210.896 225.862 211.375 225.633C211.854 225.398 212.388 225.281 212.977 225.281C214.008 225.281 214.784 225.531 215.305 226.031C215.826 226.526 216.086 227.32 216.086 228.414V234H214.789ZM221.523 233.086C221.753 233.086 221.974 233.07 222.188 233.039C222.401 233.003 222.57 232.966 222.695 232.93V233.922C222.555 233.99 222.346 234.044 222.07 234.086C221.799 234.133 221.555 234.156 221.336 234.156C219.68 234.156 218.852 233.284 218.852 231.539V226.445H217.625V225.82L218.852 225.281L219.398 223.453H220.148V225.438H222.633V226.445H220.148V231.484C220.148 232 220.271 232.396 220.516 232.672C220.76 232.948 221.096 233.086 221.523 233.086ZM228.031 234.156C226.766 234.156 225.766 233.771 225.031 233C224.302 232.229 223.938 231.159 223.938 229.789C223.938 228.409 224.276 227.312 224.953 226.5C225.635 225.688 226.549 225.281 227.695 225.281C228.768 225.281 229.617 225.635 230.242 226.344C230.867 227.047 231.18 227.977 231.18 229.133V229.953H225.281C225.307 230.958 225.56 231.721 226.039 232.242C226.523 232.763 227.203 233.023 228.078 233.023C229 233.023 229.911 232.831 230.812 232.445V233.602C230.354 233.799 229.919 233.94 229.508 234.023C229.102 234.112 228.609 234.156 228.031 234.156ZM227.68 226.367C226.992 226.367 226.443 226.591 226.031 227.039C225.625 227.487 225.385 228.107 225.312 228.898H229.789C229.789 228.081 229.607 227.456 229.242 227.023C228.878 226.586 228.357 226.367 227.68 226.367ZM244.312 234V228.43C244.312 227.747 244.167 227.237 243.875 226.898C243.583 226.555 243.13 226.383 242.516 226.383C241.708 226.383 241.112 226.615 240.727 227.078C240.341 227.542 240.148 228.255 240.148 229.219V234H238.852V228.43C238.852 227.747 238.706 227.237 238.414 226.898C238.122 226.555 237.667 226.383 237.047 226.383C236.234 226.383 235.638 226.628 235.258 227.117C234.883 227.602 234.695 228.398 234.695 229.508V234H233.398V225.438H234.453L234.664 226.609H234.727C234.971 226.193 235.315 225.867 235.758 225.633C236.206 225.398 236.706 225.281 237.258 225.281C238.596 225.281 239.471 225.766 239.883 226.734H239.945C240.201 226.286 240.57 225.932 241.055 225.672C241.539 225.411 242.091 225.281 242.711 225.281C243.68 225.281 244.404 225.531 244.883 226.031C245.367 226.526 245.609 227.32 245.609 228.414V234H244.312Z" fill="#1B1B1B"/>
<path d="M114.836 234H113.57V225.859C113.57 225.182 113.591 224.542 113.633 223.938C113.523 224.047 113.401 224.161 113.266 224.281C113.13 224.401 112.51 224.909 111.406 225.805L110.719 224.914L113.742 222.578H114.836V234ZM120.633 234L125.367 223.773H119.141V222.578H126.742V223.617L122.07 234H120.633ZM133.273 222.578L129.016 234H127.719L131.977 222.578H133.273ZM141.789 228.273C141.789 230.247 141.477 231.721 140.852 232.695C140.232 233.669 139.281 234.156 138 234.156C136.771 234.156 135.836 233.659 135.195 232.664C134.555 231.664 134.234 230.201 134.234 228.273C134.234 226.284 134.544 224.807 135.164 223.844C135.784 222.88 136.729 222.398 138 222.398C139.24 222.398 140.18 222.901 140.82 223.906C141.466 224.911 141.789 226.367 141.789 228.273ZM135.547 228.273C135.547 229.935 135.742 231.146 136.133 231.906C136.523 232.661 137.146 233.039 138 233.039C138.865 233.039 139.49 232.656 139.875 231.891C140.266 231.12 140.461 229.914 140.461 228.273C140.461 226.633 140.266 225.432 139.875 224.672C139.49 223.906 138.865 223.523 138 223.523C137.146 223.523 136.523 223.901 136.133 224.656C135.742 225.406 135.547 226.612 135.547 228.273ZM150.453 225.266C150.453 225.995 150.247 226.591 149.836 227.055C149.43 227.518 148.852 227.828 148.102 227.984V228.047C149.018 228.161 149.698 228.453 150.141 228.922C150.583 229.391 150.805 230.005 150.805 230.766C150.805 231.854 150.427 232.693 149.672 233.281C148.917 233.865 147.844 234.156 146.453 234.156C145.849 234.156 145.294 234.109 144.789 234.016C144.289 233.927 143.802 233.768 143.328 233.539V232.305C143.823 232.549 144.349 232.737 144.906 232.867C145.469 232.992 146 233.055 146.5 233.055C148.474 233.055 149.461 232.281 149.461 230.734C149.461 229.349 148.372 228.656 146.195 228.656H145.07V227.539H146.211C147.102 227.539 147.807 227.344 148.328 226.953C148.849 226.557 149.109 226.01 149.109 225.312C149.109 224.755 148.917 224.318 148.531 224C148.151 223.682 147.633 223.523 146.977 223.523C146.477 223.523 146.005 223.591 145.562 223.727C145.12 223.862 144.615 224.112 144.047 224.477L143.391 223.602C143.859 223.232 144.398 222.943 145.008 222.734C145.622 222.521 146.268 222.414 146.945 222.414C148.055 222.414 148.917 222.669 149.531 223.18C150.146 223.685 150.453 224.38 150.453 225.266Z" fill="#1B1B1B"/>
<path d="M15.8359 234H14.5703V225.859C14.5703 225.182 14.5911 224.542 14.6328 223.938C14.5234 224.047 14.401 224.161 14.2656 224.281C14.1302 224.401 13.5104 224.909 12.4062 225.805L11.7188 224.914L14.7422 222.578H15.8359V234ZM20.3203 229.117C20.3203 226.872 20.7552 225.195 21.625 224.086C22.5 222.971 23.7917 222.414 25.5 222.414C26.0885 222.414 26.5521 222.464 26.8906 222.562V223.68C26.4896 223.549 26.0312 223.484 25.5156 223.484C24.2917 223.484 23.3568 223.867 22.7109 224.633C22.0651 225.393 21.7109 226.591 21.6484 228.227H21.7422C22.3151 227.331 23.2214 226.883 24.4609 226.883C25.487 226.883 26.2943 227.193 26.8828 227.812C27.4766 228.432 27.7734 229.273 27.7734 230.336C27.7734 231.523 27.4479 232.458 26.7969 233.141C26.151 233.818 25.276 234.156 24.1719 234.156C22.9896 234.156 22.0521 233.714 21.3594 232.828C20.6667 231.938 20.3203 230.701 20.3203 229.117ZM24.1562 233.055C24.8958 233.055 25.4688 232.823 25.875 232.359C26.2865 231.891 26.4922 231.216 26.4922 230.336C26.4922 229.581 26.3021 228.987 25.9219 228.555C25.5417 228.122 24.974 227.906 24.2188 227.906C23.75 227.906 23.3203 228.003 22.9297 228.195C22.5391 228.388 22.2266 228.654 21.9922 228.992C21.763 229.331 21.6484 229.682 21.6484 230.047C21.6484 230.583 21.7526 231.083 21.9609 231.547C22.1693 232.01 22.4635 232.378 22.8438 232.648C23.2292 232.919 23.6667 233.055 24.1562 233.055ZM34.2734 222.578L30.0156 234H28.7188L32.9766 222.578H34.2734ZM42.7891 228.273C42.7891 230.247 42.4766 231.721 41.8516 232.695C41.2318 233.669 40.2812 234.156 39 234.156C37.7708 234.156 36.8359 233.659 36.1953 232.664C35.5547 231.664 35.2344 230.201 35.2344 228.273C35.2344 226.284 35.5443 224.807 36.1641 223.844C36.7839 222.88 37.7292 222.398 39 222.398C40.2396 222.398 41.1797 222.901 41.8203 223.906C42.4661 224.911 42.7891 226.367 42.7891 228.273ZM36.5469 228.273C36.5469 229.935 36.7422 231.146 37.1328 231.906C37.5234 232.661 38.1458 233.039 39 233.039C39.8646 233.039 40.4896 232.656 40.875 231.891C41.2656 231.12 41.4609 229.914 41.4609 228.273C41.4609 226.633 41.2656 225.432 40.875 224.672C40.4896 223.906 39.8646 223.523 39 223.523C38.1458 223.523 37.5234 223.901 37.1328 224.656C36.7422 225.406 36.5469 226.612 36.5469 228.273ZM51.4531 225.266C51.4531 225.995 51.2474 226.591 50.8359 227.055C50.4297 227.518 49.8516 227.828 49.1016 227.984V228.047C50.0182 228.161 50.6979 228.453 51.1406 228.922C51.5833 229.391 51.8047 230.005 51.8047 230.766C51.8047 231.854 51.4271 232.693 50.6719 233.281C49.9167 233.865 48.8438 234.156 47.4531 234.156C46.849 234.156 46.2943 234.109 45.7891 234.016C45.2891 233.927 44.8021 233.768 44.3281 233.539V232.305C44.8229 232.549 45.349 232.737 45.9062 232.867C46.4688 232.992 47 233.055 47.5 233.055C49.474 233.055 50.4609 232.281 50.4609 230.734C50.4609 229.349 49.3724 228.656 47.1953 228.656H46.0703V227.539H47.2109C48.1016 227.539 48.8073 227.344 49.3281 226.953C49.849 226.557 50.1094 226.01 50.1094 225.312C50.1094 224.755 49.9167 224.318 49.5312 224C49.151 223.682 48.6328 223.523 47.9766 223.523C47.4766 223.523 47.0052 223.591 46.5625 223.727C46.1198 223.862 45.6146 224.112 45.0469 224.477L44.3906 223.602C44.8594 223.232 45.3984 222.943 46.0078 222.734C46.6224 222.521 47.2682 222.414 47.9453 222.414C49.0547 222.414 49.9167 222.669 50.5312 223.18C51.1458 223.685 51.4531 224.38 51.4531 225.266Z" fill="#1B1B1B"/>
<rect width="375" height="206" fill="#F7F7F7"/>
<line x1="0.00133333" y1="128.5" x2="375.001" y2="129.5" stroke="#1B1B1B" stroke-opacity="0.46"/>
<g filter="url(#filter0_d)">
<path d="M296 75C296 66.7157 302.716 60 311 60C319.284 60 326 66.7157 326 75V129H296V75Z" fill="#4DE988"/>
<path d="M296 129H326V141C326 149.284 319.284 156 311 156C302.716 156 296 149.284 296 141V129Z" fill="#F76263"/>
<path d="M296 120C296 111.716 302.716 105 311 105C319.284 105 326 111.716 326 120V129H296V120Z" fill="#1B1B1B"/>
<g filter="url(#filter1_d)">
<circle cx="311.333" cy="86.3333" r="8.33333" fill="#3270CD"/>
</g>
</g>
<g filter="url(#filter2_d)">
<path d="M206 35C206 26.7157 212.716 20 221 20C229.284 20 236 26.7157 236 35V131H206V35Z" fill="#4DE988"/>
<path d="M206 129H236V169C236 177.284 229.284 184 221 184C212.716 184 206 177.284 206 169V129Z" fill="#F76263"/>
<path d="M206 114C206 105.716 212.716 99 221 99C229.284 99 236 105.716 236 114V129H206V114Z" fill="#1B1B1B"/>
<g filter="url(#filter3_d)">
<circle cx="221.333" cy="107.333" r="8.33333" fill="#3270CD"/>
</g>
</g>
<g filter="url(#filter4_d)">
<path d="M116 75C116 66.7157 122.716 60 131 60C139.284 60 146 66.7157 146 75V129H116V75Z" fill="#4DE988"/>
<path d="M116 129H146V182.333C146 190.618 139.284 197.333 131 197.333C122.716 197.333 116 190.618 116 182.333V129Z" fill="#F76263"/>
<path d="M116 114C116 105.716 122.716 99 131 99C139.284 99 146 105.716 146 114V129H116V114Z" fill="#1B1B1B"/>
<g filter="url(#filter5_d)">
<circle cx="131.333" cy="151.333" r="8.33333" fill="#3270CD"/>
</g>
</g>
<g filter="url(#filter6_d)">
<path d="M17 54C17 45.7157 23.7157 39 32 39C40.2843 39 47 45.7157 47 54V129H17V54Z" fill="#4DE988"/>
<path d="M17 129H47V182.333C47 190.618 40.2843 197.333 32 197.333C23.7157 197.333 17 190.618 17 182.333V129Z" fill="#F76263"/>
<path d="M17 114C17 105.716 23.7157 99 32 99C40.2843 99 47 105.716 47 114V129H17V114Z" fill="#1B1B1B"/>
<g filter="url(#filter7_d)">
<circle cx="32" cy="102.333" r="8.33333" fill="#3270CD"/>
</g>
</g>
<line x1="32.4363" y1="102.1" x2="131.436" y2="150.1" stroke="#3270CD" stroke-width="2"/>
<line x1="130.561" y1="150.102" x2="220.561" y2="106.102" stroke="#3270CD" stroke-width="2"/>
<line x1="220.773" y1="106.026" x2="310.773" y2="85.0262" stroke="#3270CD" stroke-width="2"/>
<line x1="31.4513" y1="102.836" x2="-0.548655" y2="81.8361" stroke="#3270CD" stroke-width="2"/>
<g filter="url(#filter8_d)">
<circle cx="13.5" cy="257.5" r="6.5" fill="#4DE988"/>
</g>
<g filter="url(#filter9_d)">
<circle cx="83.5" cy="257.5" r="6.5" fill="#3270CD"/>
</g>
<g filter="url(#filter10_d)">
<circle cx="239.5" cy="256.5" r="6.5" fill="#F76263"/>
</g>
<g filter="url(#filter11_d)">
<circle cx="309.5" cy="256.5" r="6.5" fill="#1B1B1B"/>
</g>
<path d="M25.3203 257.8H26.2119C26.8099 257.8 27.2432 257.689 27.5117 257.467C27.7803 257.245 27.9146 256.915 27.9146 256.479C27.9146 256.035 27.7695 255.716 27.4795 255.522C27.1895 255.329 26.7526 255.232 26.1689 255.232H25.3203V257.8ZM25.3203 258.863V262H24.0366V254.147H26.2549C27.2682 254.147 28.0184 254.337 28.5054 254.717C28.9924 255.096 29.2358 255.669 29.2358 256.436C29.2358 257.413 28.7274 258.11 27.7104 258.525L29.9287 262H28.4678L26.5879 258.863H25.3203ZM33.5327 262.107C32.6089 262.107 31.8856 261.839 31.3628 261.302C30.8436 260.761 30.584 260.018 30.584 259.073C30.584 258.102 30.8257 257.34 31.3091 256.785C31.7925 256.23 32.4567 255.952 33.3018 255.952C34.0859 255.952 34.7054 256.19 35.1602 256.667C35.6149 257.143 35.8423 257.798 35.8423 258.632V259.314H31.8838C31.9017 259.891 32.0575 260.335 32.3511 260.646C32.6447 260.954 33.0583 261.108 33.5918 261.108C33.9427 261.108 34.2686 261.076 34.5693 261.012C34.8737 260.944 35.1995 260.833 35.5469 260.679V261.705C35.2389 261.851 34.9274 261.955 34.6123 262.016C34.2972 262.077 33.9373 262.107 33.5327 262.107ZM33.3018 256.908C32.9007 256.908 32.5785 257.035 32.335 257.29C32.0951 257.544 31.9518 257.914 31.9053 258.401H34.6016C34.5944 257.911 34.4762 257.54 34.2471 257.29C34.0179 257.035 33.7028 256.908 33.3018 256.908ZM39.6719 262.107C38.7731 262.107 38.0892 261.846 37.6201 261.323C37.1546 260.797 36.9219 260.043 36.9219 259.062C36.9219 258.063 37.1654 257.295 37.6523 256.758C38.1429 256.221 38.8501 255.952 39.7739 255.952C40.4006 255.952 40.9645 256.069 41.4658 256.301L41.0845 257.316C40.5509 257.109 40.1105 257.005 39.7632 257.005C38.7355 257.005 38.2217 257.687 38.2217 259.051C38.2217 259.717 38.3488 260.219 38.603 260.555C38.8608 260.888 39.2368 261.055 39.731 261.055C40.2931 261.055 40.8249 260.915 41.3262 260.636V261.737C41.1006 261.869 40.8589 261.964 40.6011 262.021C40.3468 262.079 40.0371 262.107 39.6719 262.107ZM45.3169 262.107C44.3931 262.107 43.6698 261.839 43.147 261.302C42.6278 260.761 42.3682 260.018 42.3682 259.073C42.3682 258.102 42.6099 257.34 43.0933 256.785C43.5767 256.23 44.2409 255.952 45.0859 255.952C45.8701 255.952 46.4896 256.19 46.9443 256.667C47.3991 257.143 47.6265 257.798 47.6265 258.632V259.314H43.668C43.6859 259.891 43.8416 260.335 44.1353 260.646C44.4289 260.954 44.8424 261.108 45.376 261.108C45.7269 261.108 46.0527 261.076 46.3535 261.012C46.6579 260.944 46.9837 260.833 47.3311 260.679V261.705C47.0231 261.851 46.7116 261.955 46.3965 262.016C46.0814 262.077 45.7215 262.107 45.3169 262.107ZM45.0859 256.908C44.6849 256.908 44.3626 257.035 44.1191 257.29C43.8792 257.544 43.736 257.914 43.6895 258.401H46.3857C46.3786 257.911 46.2604 257.54 46.0312 257.29C45.8021 257.035 45.487 256.908 45.0859 256.908ZM50.3228 262H49.0605V256.06H50.3228V262ZM48.9854 254.486C48.9854 254.26 49.0462 254.087 49.168 253.965C49.2933 253.843 49.4705 253.782 49.6997 253.782C49.9217 253.782 50.0936 253.843 50.2153 253.965C50.3407 254.087 50.4033 254.26 50.4033 254.486C50.4033 254.701 50.3407 254.871 50.2153 254.996C50.0936 255.118 49.9217 255.179 49.6997 255.179C49.4705 255.179 49.2933 255.118 49.168 254.996C49.0462 254.871 48.9854 254.701 48.9854 254.486ZM54.3457 261.087C54.6536 261.087 54.9616 261.039 55.2695 260.942V261.893C55.1299 261.953 54.9491 262.004 54.7271 262.043C54.5086 262.086 54.2812 262.107 54.0449 262.107C52.849 262.107 52.251 261.477 52.251 260.217V257.016H51.4399V256.457L52.3101 255.995L52.7397 254.738H53.5186V256.06H55.2104V257.016H53.5186V260.195C53.5186 260.5 53.5938 260.725 53.7441 260.872C53.8981 261.015 54.0986 261.087 54.3457 261.087ZM60.1787 262L59.9263 261.173H59.8833C59.5968 261.535 59.3086 261.782 59.0186 261.914C58.7285 262.043 58.3561 262.107 57.9014 262.107C57.3177 262.107 56.8612 261.95 56.5317 261.635C56.2059 261.32 56.043 260.874 56.043 260.297C56.043 259.685 56.2703 259.223 56.7251 258.912C57.1799 258.6 57.8727 258.43 58.8037 258.401L59.8296 258.369V258.052C59.8296 257.673 59.7401 257.39 59.561 257.204C59.3856 257.014 59.1117 256.919 58.7393 256.919C58.4349 256.919 58.1431 256.964 57.8638 257.053C57.5845 257.143 57.3159 257.248 57.0581 257.37L56.6499 256.468C56.9722 256.299 57.3249 256.172 57.708 256.086C58.0911 255.997 58.4528 255.952 58.793 255.952C59.5485 255.952 60.1178 256.117 60.501 256.446C60.8877 256.776 61.0811 257.293 61.0811 257.999V262H60.1787ZM58.2988 261.141C58.7572 261.141 59.1242 261.014 59.3999 260.759C59.6792 260.501 59.8188 260.142 59.8188 259.68V259.164L59.0562 259.196C58.4618 259.218 58.0285 259.318 57.7563 259.497C57.4878 259.673 57.3535 259.943 57.3535 260.308C57.3535 260.573 57.4323 260.779 57.5898 260.926C57.7474 261.069 57.9837 261.141 58.2988 261.141Z" fill="#1B1B1B"/>
<path d="M95.3203 257.8H96.2119C96.8099 257.8 97.2432 257.689 97.5117 257.467C97.7803 257.245 97.9146 256.915 97.9146 256.479C97.9146 256.035 97.7695 255.716 97.4795 255.522C97.1895 255.329 96.7526 255.232 96.1689 255.232H95.3203V257.8ZM95.3203 258.863V262H94.0366V254.147H96.2549C97.2682 254.147 98.0184 254.337 98.5054 254.717C98.9924 255.096 99.2358 255.669 99.2358 256.436C99.2358 257.413 98.7274 258.11 97.7104 258.525L99.9287 262H98.4678L96.5879 258.863H95.3203ZM103.533 262.107C102.609 262.107 101.886 261.839 101.363 261.302C100.844 260.761 100.584 260.018 100.584 259.073C100.584 258.102 100.826 257.34 101.309 256.785C101.792 256.23 102.457 255.952 103.302 255.952C104.086 255.952 104.705 256.19 105.16 256.667C105.615 257.143 105.842 257.798 105.842 258.632V259.314H101.884C101.902 259.891 102.057 260.335 102.351 260.646C102.645 260.954 103.058 261.108 103.592 261.108C103.943 261.108 104.269 261.076 104.569 261.012C104.874 260.944 105.2 260.833 105.547 260.679V261.705C105.239 261.851 104.927 261.955 104.612 262.016C104.297 262.077 103.937 262.107 103.533 262.107ZM103.302 256.908C102.901 256.908 102.578 257.035 102.335 257.29C102.095 257.544 101.952 257.914 101.905 258.401H104.602C104.594 257.911 104.476 257.54 104.247 257.29C104.018 257.035 103.703 256.908 103.302 256.908ZM111.267 260.308C111.267 260.888 111.056 261.334 110.633 261.646C110.211 261.953 109.606 262.107 108.818 262.107C108.027 262.107 107.391 261.987 106.911 261.748V260.657C107.609 260.979 108.259 261.141 108.861 261.141C109.638 261.141 110.026 260.906 110.026 260.437C110.026 260.287 109.983 260.161 109.897 260.061C109.812 259.961 109.67 259.857 109.473 259.75C109.276 259.642 109.002 259.52 108.651 259.384C107.967 259.119 107.504 258.854 107.26 258.589C107.02 258.324 106.9 257.981 106.9 257.558C106.9 257.05 107.104 256.656 107.513 256.376C107.924 256.094 108.483 255.952 109.188 255.952C109.887 255.952 110.547 256.094 111.17 256.376L110.762 257.327C110.121 257.062 109.582 256.93 109.146 256.93C108.479 256.93 108.146 257.119 108.146 257.499C108.146 257.685 108.232 257.843 108.404 257.972C108.58 258.101 108.959 258.278 109.543 258.503C110.034 258.693 110.39 258.867 110.612 259.024C110.834 259.182 110.999 259.365 111.106 259.572C111.213 259.776 111.267 260.022 111.267 260.308ZM116.826 262L116.649 261.221H116.584C116.409 261.497 116.158 261.714 115.833 261.871C115.51 262.029 115.141 262.107 114.726 262.107C114.006 262.107 113.469 261.928 113.115 261.57C112.76 261.212 112.583 260.67 112.583 259.943V256.06H113.856V259.723C113.856 260.177 113.949 260.519 114.135 260.749C114.321 260.974 114.613 261.087 115.011 261.087C115.541 261.087 115.929 260.929 116.176 260.614C116.427 260.296 116.552 259.764 116.552 259.019V256.06H117.82V262H116.826ZM120.881 262H119.619V253.643H120.881V262ZM124.904 261.087C125.212 261.087 125.52 261.039 125.828 260.942V261.893C125.688 261.953 125.508 262.004 125.286 262.043C125.067 262.086 124.84 262.107 124.604 262.107C123.408 262.107 122.81 261.477 122.81 260.217V257.016H121.999V256.457L122.869 255.995L123.298 254.738H124.077V256.06H125.769V257.016H124.077V260.195C124.077 260.5 124.152 260.725 124.303 260.872C124.457 261.015 124.657 261.087 124.904 261.087ZM130.737 262L130.485 261.173H130.442C130.155 261.535 129.867 261.782 129.577 261.914C129.287 262.043 128.915 262.107 128.46 262.107C127.876 262.107 127.42 261.95 127.09 261.635C126.764 261.32 126.602 260.874 126.602 260.297C126.602 259.685 126.829 259.223 127.284 258.912C127.738 258.6 128.431 258.43 129.362 258.401L130.388 258.369V258.052C130.388 257.673 130.299 257.39 130.12 257.204C129.944 257.014 129.67 256.919 129.298 256.919C128.993 256.919 128.702 256.964 128.422 257.053C128.143 257.143 127.875 257.248 127.617 257.37L127.208 256.468C127.531 256.299 127.883 256.172 128.267 256.086C128.65 255.997 129.011 255.952 129.352 255.952C130.107 255.952 130.676 256.117 131.06 256.446C131.446 256.776 131.64 257.293 131.64 257.999V262H130.737ZM128.857 261.141C129.316 261.141 129.683 261.014 129.958 260.759C130.238 260.501 130.377 260.142 130.377 259.68V259.164L129.615 259.196C129.02 259.218 128.587 259.318 128.315 259.497C128.046 259.673 127.912 259.943 127.912 260.308C127.912 260.573 127.991 260.779 128.148 260.926C128.306 261.069 128.542 261.141 128.857 261.141ZM135.405 262.107C134.664 262.107 134.085 261.839 133.67 261.302C133.255 260.765 133.047 260.011 133.047 259.041C133.047 258.067 133.256 257.309 133.675 256.769C134.098 256.224 134.681 255.952 135.426 255.952C136.207 255.952 136.801 256.24 137.209 256.817H137.274C137.213 256.391 137.183 256.054 137.183 255.807V253.643H138.45V262H137.462L137.242 261.221H137.183C136.778 261.812 136.185 262.107 135.405 262.107ZM135.743 261.087C136.262 261.087 136.64 260.942 136.876 260.652C137.113 260.358 137.235 259.884 137.242 259.229V259.051C137.242 258.303 137.12 257.771 136.876 257.456C136.633 257.141 136.252 256.983 135.732 256.983C135.288 256.983 134.946 257.164 134.707 257.526C134.467 257.884 134.347 258.396 134.347 259.062C134.347 259.721 134.463 260.224 134.696 260.571C134.929 260.915 135.278 261.087 135.743 261.087ZM145.524 259.019C145.524 259.989 145.275 260.747 144.777 261.291C144.28 261.835 143.587 262.107 142.699 262.107C142.144 262.107 141.653 261.982 141.227 261.731C140.801 261.481 140.473 261.121 140.244 260.652C140.015 260.183 139.9 259.639 139.9 259.019C139.9 258.056 140.147 257.304 140.642 256.763C141.136 256.222 141.832 255.952 142.731 255.952C143.59 255.952 144.271 256.23 144.772 256.785C145.273 257.336 145.524 258.081 145.524 259.019ZM141.2 259.019C141.2 260.39 141.707 261.076 142.72 261.076C143.723 261.076 144.224 260.39 144.224 259.019C144.224 257.662 143.719 256.983 142.709 256.983C142.18 256.983 141.795 257.159 141.555 257.51C141.318 257.861 141.2 258.364 141.2 259.019ZM156.943 258.063C156.943 259.341 156.622 260.335 155.981 261.044C155.344 261.753 154.44 262.107 153.269 262.107C152.084 262.107 151.173 261.757 150.535 261.055C149.901 260.349 149.584 259.348 149.584 258.052C149.584 256.756 149.903 255.761 150.541 255.066C151.181 254.371 152.095 254.024 153.28 254.024C154.447 254.024 155.349 254.377 155.987 255.082C156.624 255.787 156.943 256.781 156.943 258.063ZM150.949 258.063C150.949 259.03 151.144 259.764 151.534 260.265C151.924 260.763 152.503 261.012 153.269 261.012C154.032 261.012 154.606 260.765 154.993 260.271C155.383 259.776 155.579 259.041 155.579 258.063C155.579 257.1 155.385 256.369 154.999 255.872C154.615 255.374 154.042 255.125 153.28 255.125C152.51 255.125 151.928 255.374 151.534 255.872C151.144 256.369 150.949 257.1 150.949 258.063ZM161.508 262.107C160.756 262.107 160.173 261.837 159.757 261.296H159.682C159.732 261.798 159.757 262.102 159.757 262.209V264.643H158.495V256.06H159.516C159.544 256.171 159.603 256.436 159.693 256.854H159.757C160.151 256.253 160.742 255.952 161.53 255.952C162.271 255.952 162.847 256.221 163.259 256.758C163.675 257.295 163.882 258.049 163.882 259.019C163.882 259.989 163.671 260.747 163.249 261.291C162.83 261.835 162.25 262.107 161.508 262.107ZM161.202 256.983C160.701 256.983 160.334 257.13 160.101 257.424C159.872 257.717 159.757 258.187 159.757 258.831V259.019C159.757 259.742 159.872 260.267 160.101 260.593C160.33 260.915 160.704 261.076 161.224 261.076C161.66 261.076 161.997 260.897 162.233 260.539C162.47 260.181 162.588 259.671 162.588 259.008C162.588 258.342 162.47 257.839 162.233 257.499C162.001 257.155 161.657 256.983 161.202 256.983ZM167.943 262.107C167.019 262.107 166.296 261.839 165.773 261.302C165.254 260.761 164.994 260.018 164.994 259.073C164.994 258.102 165.236 257.34 165.719 256.785C166.203 256.23 166.867 255.952 167.712 255.952C168.496 255.952 169.116 256.19 169.57 256.667C170.025 257.143 170.252 257.798 170.252 258.632V259.314H166.294C166.312 259.891 166.468 260.335 166.761 260.646C167.055 260.954 167.468 261.108 168.002 261.108C168.353 261.108 168.679 261.076 168.979 261.012C169.284 260.944 169.61 260.833 169.957 260.679V261.705C169.649 261.851 169.338 261.955 169.022 262.016C168.707 262.077 168.347 262.107 167.943 262.107ZM167.712 256.908C167.311 256.908 166.989 257.035 166.745 257.29C166.505 257.544 166.362 257.914 166.315 258.401H169.012C169.005 257.911 168.886 257.54 168.657 257.29C168.428 257.035 168.113 256.908 167.712 256.908ZM174.7 255.952C174.954 255.952 175.163 255.97 175.328 256.006L175.205 257.182C175.026 257.139 174.839 257.118 174.646 257.118C174.141 257.118 173.731 257.282 173.416 257.612C173.104 257.941 172.949 258.369 172.949 258.896V262H171.687V256.06H172.675L172.841 257.107H172.906C173.103 256.752 173.359 256.471 173.674 256.264C173.993 256.056 174.334 255.952 174.7 255.952ZM180.151 262L179.899 261.173H179.856C179.569 261.535 179.281 261.782 178.991 261.914C178.701 262.043 178.329 262.107 177.874 262.107C177.29 262.107 176.834 261.95 176.504 261.635C176.179 261.32 176.016 260.874 176.016 260.297C176.016 259.685 176.243 259.223 176.698 258.912C177.153 258.6 177.845 258.43 178.776 258.401L179.802 258.369V258.052C179.802 257.673 179.713 257.39 179.534 257.204C179.358 257.014 179.084 256.919 178.712 256.919C178.408 256.919 178.116 256.964 177.836 257.053C177.557 257.143 177.289 257.248 177.031 257.37L176.623 256.468C176.945 256.299 177.298 256.172 177.681 256.086C178.064 255.997 178.425 255.952 178.766 255.952C179.521 255.952 180.09 256.117 180.474 256.446C180.86 256.776 181.054 257.293 181.054 257.999V262H180.151ZM178.271 261.141C178.73 261.141 179.097 261.014 179.373 260.759C179.652 260.501 179.792 260.142 179.792 259.68V259.164L179.029 259.196C178.434 259.218 178.001 259.318 177.729 259.497C177.46 259.673 177.326 259.943 177.326 260.308C177.326 260.573 177.405 260.779 177.562 260.926C177.72 261.069 177.956 261.141 178.271 261.141ZM185.211 262.107C184.312 262.107 183.628 261.846 183.159 261.323C182.694 260.797 182.461 260.043 182.461 259.062C182.461 258.063 182.704 257.295 183.191 256.758C183.682 256.221 184.389 255.952 185.313 255.952C185.94 255.952 186.504 256.069 187.005 256.301L186.624 257.316C186.09 257.109 185.65 257.005 185.302 257.005C184.275 257.005 183.761 257.687 183.761 259.051C183.761 259.717 183.888 260.219 184.142 260.555C184.4 260.888 184.776 261.055 185.27 261.055C185.832 261.055 186.364 260.915 186.865 260.636V261.737C186.64 261.869 186.398 261.964 186.14 262.021C185.886 262.079 185.576 262.107 185.211 262.107ZM189.524 262H188.262V256.06H189.524V262ZM188.187 254.486C188.187 254.26 188.247 254.087 188.369 253.965C188.494 253.843 188.672 253.782 188.901 253.782C189.123 253.782 189.295 253.843 189.417 253.965C189.542 254.087 189.604 254.26 189.604 254.486C189.604 254.701 189.542 254.871 189.417 254.996C189.295 255.118 189.123 255.179 188.901 255.179C188.672 255.179 188.494 255.118 188.369 254.996C188.247 254.871 188.187 254.701 188.187 254.486ZM196.603 259.019C196.603 259.989 196.354 260.747 195.856 261.291C195.359 261.835 194.666 262.107 193.778 262.107C193.223 262.107 192.732 261.982 192.306 261.731C191.88 261.481 191.552 261.121 191.323 260.652C191.094 260.183 190.979 259.639 190.979 259.019C190.979 258.056 191.227 257.304 191.721 256.763C192.215 256.222 192.911 255.952 193.81 255.952C194.669 255.952 195.35 256.23 195.851 256.785C196.352 257.336 196.603 258.081 196.603 259.019ZM192.279 259.019C192.279 260.39 192.786 261.076 193.799 261.076C194.802 261.076 195.303 260.39 195.303 259.019C195.303 257.662 194.798 256.983 193.789 256.983C193.259 256.983 192.874 257.159 192.634 257.51C192.397 257.861 192.279 258.364 192.279 259.019ZM203.285 262H202.017V258.348C202.017 257.889 201.924 257.547 201.738 257.322C201.555 257.096 201.263 256.983 200.862 256.983C200.329 256.983 199.938 257.141 199.691 257.456C199.444 257.771 199.321 258.299 199.321 259.041V262H198.059V256.06H199.047L199.224 256.838H199.289C199.468 256.556 199.722 256.337 200.051 256.183C200.381 256.029 200.746 255.952 201.147 255.952C202.572 255.952 203.285 256.677 203.285 258.127V262ZM208.758 262L208.505 261.173H208.462C208.176 261.535 207.888 261.782 207.598 261.914C207.308 262.043 206.935 262.107 206.48 262.107C205.897 262.107 205.44 261.95 205.111 261.635C204.785 261.32 204.622 260.874 204.622 260.297C204.622 259.685 204.849 259.223 205.304 258.912C205.759 258.6 206.452 258.43 207.383 258.401L208.409 258.369V258.052C208.409 257.673 208.319 257.39 208.14 257.204C207.965 257.014 207.691 256.919 207.318 256.919C207.014 256.919 206.722 256.964 206.443 257.053C206.164 257.143 205.895 257.248 205.637 257.37L205.229 256.468C205.551 256.299 205.904 256.172 206.287 256.086C206.67 255.997 207.032 255.952 207.372 255.952C208.128 255.952 208.697 256.117 209.08 256.446C209.467 256.776 209.66 257.293 209.66 257.999V262H208.758ZM206.878 261.141C207.336 261.141 207.703 261.014 207.979 260.759C208.258 260.501 208.398 260.142 208.398 259.68V259.164L207.635 259.196C207.041 259.218 206.608 259.318 206.335 259.497C206.067 259.673 205.933 259.943 205.933 260.308C205.933 260.573 206.011 260.779 206.169 260.926C206.326 261.069 206.563 261.141 206.878 261.141ZM212.684 262H211.422V253.643H212.684V262Z" fill="#1B1B1B"/>
<path d="M253.249 256.741H256.138V260.683C255.666 260.837 255.211 260.946 254.774 261.011C254.341 261.075 253.872 261.107 253.367 261.107C252.178 261.107 251.261 260.757 250.617 260.055C249.972 259.349 249.65 258.356 249.65 257.074C249.65 255.81 250.013 254.821 250.74 254.109C251.467 253.393 252.468 253.035 253.743 253.035C254.563 253.035 255.34 253.192 256.074 253.507L255.623 254.576C254.985 254.283 254.348 254.136 253.71 254.136C252.873 254.136 252.21 254.399 251.723 254.925C251.236 255.452 250.993 256.171 250.993 257.084C250.993 258.044 251.211 258.775 251.648 259.276C252.088 259.774 252.72 260.022 253.544 260.022C253.959 260.022 254.403 259.971 254.876 259.867V257.842H253.249V256.741ZM261.611 261L261.359 260.173H261.316C261.029 260.535 260.741 260.782 260.451 260.914C260.161 261.043 259.789 261.107 259.334 261.107C258.75 261.107 258.294 260.95 257.964 260.635C257.639 260.32 257.476 259.874 257.476 259.297C257.476 258.685 257.703 258.223 258.158 257.912C258.612 257.6 259.305 257.43 260.236 257.401L261.262 257.369V257.052C261.262 256.673 261.173 256.39 260.994 256.204C260.818 256.014 260.544 255.919 260.172 255.919C259.868 255.919 259.576 255.964 259.296 256.053C259.017 256.143 258.749 256.248 258.491 256.37L258.083 255.468C258.405 255.299 258.757 255.172 259.141 255.086C259.524 254.997 259.885 254.952 260.226 254.952C260.981 254.952 261.55 255.117 261.934 255.446C262.32 255.776 262.514 256.293 262.514 256.999V261H261.611ZM259.731 260.141C260.19 260.141 260.557 260.014 260.833 259.759C261.112 259.501 261.251 259.142 261.251 258.68V258.164L260.489 258.196C259.894 258.218 259.461 258.318 259.189 258.497C258.92 258.673 258.786 258.943 258.786 259.308C258.786 259.573 258.865 259.779 259.022 259.926C259.18 260.069 259.416 260.141 259.731 260.141ZM268.266 259.308C268.266 259.888 268.055 260.334 267.632 260.646C267.21 260.953 266.605 261.107 265.817 261.107C265.026 261.107 264.39 260.987 263.91 260.748V259.657C264.608 259.979 265.258 260.141 265.86 260.141C266.637 260.141 267.025 259.906 267.025 259.437C267.025 259.287 266.982 259.161 266.896 259.061C266.811 258.961 266.669 258.857 266.472 258.75C266.275 258.642 266.001 258.52 265.65 258.384C264.966 258.119 264.503 257.854 264.259 257.589C264.019 257.324 263.899 256.981 263.899 256.558C263.899 256.05 264.104 255.656 264.512 255.376C264.924 255.094 265.482 254.952 266.188 254.952C266.886 254.952 267.546 255.094 268.169 255.376L267.761 256.327C267.12 256.062 266.581 255.93 266.145 255.93C265.479 255.93 265.146 256.119 265.146 256.499C265.146 256.685 265.231 256.843 265.403 256.972C265.579 257.101 265.958 257.278 266.542 257.503C267.033 257.693 267.389 257.867 267.611 258.024C267.833 258.182 267.998 258.365 268.105 258.572C268.212 258.776 268.266 259.022 268.266 259.308ZM271.849 260.087C272.157 260.087 272.465 260.039 272.772 259.942V260.893C272.633 260.953 272.452 261.004 272.23 261.043C272.012 261.086 271.784 261.107 271.548 261.107C270.352 261.107 269.754 260.477 269.754 259.217V256.016H268.943V255.457L269.813 254.995L270.243 253.738H271.021V255.06H272.713V256.016H271.021V259.195C271.021 259.5 271.097 259.725 271.247 259.872C271.401 260.015 271.602 260.087 271.849 260.087ZM279.234 258.019C279.234 258.989 278.985 259.747 278.487 260.291C277.99 260.835 277.297 261.107 276.409 261.107C275.854 261.107 275.363 260.982 274.937 260.731C274.511 260.481 274.183 260.121 273.954 259.652C273.725 259.183 273.61 258.639 273.61 258.019C273.61 257.056 273.857 256.304 274.352 255.763C274.846 255.222 275.542 254.952 276.441 254.952C277.3 254.952 277.981 255.23 278.482 255.785C278.983 256.336 279.234 257.081 279.234 258.019ZM274.91 258.019C274.91 259.39 275.417 260.076 276.43 260.076C277.433 260.076 277.934 259.39 277.934 258.019C277.934 256.662 277.429 255.983 276.419 255.983C275.889 255.983 275.505 256.159 275.265 256.51C275.028 256.861 274.91 257.364 274.91 258.019ZM284.68 259.308C284.68 259.888 284.469 260.334 284.046 260.646C283.624 260.953 283.019 261.107 282.231 261.107C281.44 261.107 280.804 260.987 280.324 260.748V259.657C281.022 259.979 281.672 260.141 282.274 260.141C283.051 260.141 283.439 259.906 283.439 259.437C283.439 259.287 283.396 259.161 283.311 259.061C283.225 258.961 283.083 258.857 282.886 258.75C282.689 258.642 282.415 258.52 282.064 258.384C281.381 258.119 280.917 257.854 280.673 257.589C280.433 257.324 280.313 256.981 280.313 256.558C280.313 256.05 280.518 255.656 280.926 255.376C281.338 255.094 281.896 254.952 282.602 254.952C283.3 254.952 283.96 255.094 284.583 255.376L284.175 256.327C283.534 256.062 282.995 255.93 282.559 255.93C281.893 255.93 281.56 256.119 281.56 256.499C281.56 256.685 281.646 256.843 281.817 256.972C281.993 257.101 282.372 257.278 282.956 257.503C283.447 257.693 283.803 257.867 284.025 258.024C284.247 258.182 284.412 258.365 284.519 258.572C284.626 258.776 284.68 259.022 284.68 259.308Z" fill="#1B1B1B"/>
<path d="M320.037 261V253.147H321.32V261H320.037ZM328.271 261H327.003V257.337C327.003 256.882 326.917 256.544 326.745 256.322C326.573 256.096 326.305 255.983 325.939 255.983C325.452 255.983 325.094 256.143 324.865 256.461C324.64 256.777 324.527 257.303 324.527 258.041V261H323.265V255.06H324.253L324.43 255.838H324.495C324.659 255.556 324.897 255.337 325.209 255.183C325.524 255.029 325.87 254.952 326.246 254.952C327.159 254.952 327.764 255.264 328.061 255.887H328.147C328.322 255.593 328.569 255.364 328.888 255.199C329.207 255.035 329.572 254.952 329.984 254.952C330.693 254.952 331.208 255.131 331.531 255.489C331.857 255.847 332.02 256.393 332.02 257.127V261H330.757V257.337C330.757 256.882 330.67 256.544 330.494 256.322C330.322 256.096 330.054 255.983 329.688 255.983C329.198 255.983 328.838 256.137 328.609 256.445C328.383 256.75 328.271 257.219 328.271 257.853V261ZM336.794 261.107C336.042 261.107 335.459 260.837 335.043 260.296H334.968C335.018 260.798 335.043 261.102 335.043 261.209V263.643H333.781V255.06H334.802C334.83 255.171 334.889 255.436 334.979 255.854H335.043C335.437 255.253 336.028 254.952 336.816 254.952C337.557 254.952 338.134 255.221 338.545 255.758C338.961 256.295 339.168 257.049 339.168 258.019C339.168 258.989 338.957 259.747 338.535 260.291C338.116 260.835 337.536 261.107 336.794 261.107ZM336.488 255.983C335.987 255.983 335.62 256.13 335.387 256.424C335.158 256.717 335.043 257.187 335.043 257.831V258.019C335.043 258.742 335.158 259.267 335.387 259.593C335.616 259.915 335.991 260.076 336.51 260.076C336.947 260.076 337.283 259.897 337.52 259.539C337.756 259.181 337.874 258.671 337.874 258.008C337.874 257.342 337.756 256.839 337.52 256.499C337.287 256.155 336.943 255.983 336.488 255.983ZM345.904 258.019C345.904 258.989 345.655 259.747 345.157 260.291C344.66 260.835 343.967 261.107 343.079 261.107C342.524 261.107 342.033 260.982 341.607 260.731C341.181 260.481 340.853 260.121 340.624 259.652C340.395 259.183 340.28 258.639 340.28 258.019C340.28 257.056 340.527 256.304 341.021 255.763C341.516 255.222 342.212 254.952 343.111 254.952C343.97 254.952 344.651 255.23 345.152 255.785C345.653 256.336 345.904 257.081 345.904 258.019ZM341.58 258.019C341.58 259.39 342.087 260.076 343.1 260.076C344.103 260.076 344.604 259.39 344.604 258.019C344.604 256.662 344.099 255.983 343.089 255.983C342.559 255.983 342.174 256.159 341.935 256.51C341.698 256.861 341.58 257.364 341.58 258.019ZM351.35 259.308C351.35 259.888 351.139 260.334 350.716 260.646C350.294 260.953 349.689 261.107 348.901 261.107C348.11 261.107 347.474 260.987 346.994 260.748V259.657C347.692 259.979 348.342 260.141 348.944 260.141C349.721 260.141 350.109 259.906 350.109 259.437C350.109 259.287 350.066 259.161 349.98 259.061C349.895 258.961 349.753 258.857 349.556 258.75C349.359 258.642 349.085 258.52 348.734 258.384C348.05 258.119 347.587 257.854 347.343 257.589C347.103 257.324 346.983 256.981 346.983 256.558C346.983 256.05 347.188 255.656 347.596 255.376C348.007 255.094 348.566 254.952 349.271 254.952C349.97 254.952 350.63 255.094 351.253 255.376L350.845 256.327C350.204 256.062 349.665 255.93 349.229 255.93C348.562 255.93 348.229 256.119 348.229 256.499C348.229 256.685 348.315 256.843 348.487 256.972C348.663 257.101 349.042 257.278 349.626 257.503C350.117 257.693 350.473 257.867 350.695 258.024C350.917 258.182 351.082 258.365 351.189 258.572C351.296 258.776 351.35 259.022 351.35 259.308ZM354.933 260.087C355.241 260.087 355.549 260.039 355.856 259.942V260.893C355.717 260.953 355.536 261.004 355.314 261.043C355.096 261.086 354.868 261.107 354.632 261.107C353.436 261.107 352.838 260.477 352.838 259.217V256.016H352.027V255.457L352.897 254.995L353.327 253.738H354.105V255.06H355.797V256.016H354.105V259.195C354.105 259.5 354.181 259.725 354.331 259.872C354.485 260.015 354.686 260.087 354.933 260.087ZM362.318 258.019C362.318 258.989 362.069 259.747 361.571 260.291C361.074 260.835 360.381 261.107 359.493 261.107C358.938 261.107 358.447 260.982 358.021 260.731C357.595 260.481 357.267 260.121 357.038 259.652C356.809 259.183 356.694 258.639 356.694 258.019C356.694 257.056 356.941 256.304 357.436 255.763C357.93 255.222 358.626 254.952 359.525 254.952C360.384 254.952 361.065 255.23 361.566 255.785C362.067 256.336 362.318 257.081 362.318 258.019ZM357.994 258.019C357.994 259.39 358.501 260.076 359.514 260.076C360.517 260.076 361.018 259.39 361.018 258.019C361.018 256.662 360.513 255.983 359.503 255.983C358.973 255.983 358.589 256.159 358.349 256.51C358.112 256.861 357.994 257.364 357.994 258.019ZM367.764 259.308C367.764 259.888 367.553 260.334 367.13 260.646C366.708 260.953 366.103 261.107 365.315 261.107C364.524 261.107 363.888 260.987 363.408 260.748V259.657C364.106 259.979 364.756 260.141 365.358 260.141C366.135 260.141 366.523 259.906 366.523 259.437C366.523 259.287 366.48 259.161 366.395 259.061C366.309 258.961 366.167 258.857 365.97 258.75C365.773 258.642 365.499 258.52 365.148 258.384C364.465 258.119 364.001 257.854 363.757 257.589C363.517 257.324 363.397 256.981 363.397 256.558C363.397 256.05 363.602 255.656 364.01 255.376C364.422 255.094 364.98 254.952 365.686 254.952C366.384 254.952 367.044 255.094 367.667 255.376L367.259 256.327C366.618 256.062 366.079 255.93 365.643 255.93C364.977 255.93 364.644 256.119 364.644 256.499C364.644 256.685 364.729 256.843 364.901 256.972C365.077 257.101 365.456 257.278 366.04 257.503C366.531 257.693 366.887 257.867 367.109 258.024C367.331 258.182 367.496 258.365 367.603 258.572C367.71 258.776 367.764 259.022 367.764 259.308Z" fill="#1B1B1B"/>
<defs>
<filter id="filter0_d" x="292" y="56" width="38" height="104" filterUnits="userSpaceOnUse" color-interpolation-filters="sRGB">
<feFlood flood-opacity="0" result="BackgroundImageFix"/>
<feColorMatrix in="SourceAlpha" type="matrix" values="0 0 0 0 0 0 0 0 0 0 0 0 0 0 0 0 0 0 127 0"/>
<feOffset/>
<feGaussianBlur stdDeviation="2"/>
<feColorMatrix type="matrix" values="0 0 0 0 0 0 0 0 0 0 0 0 0 0 0 0 0 0 0.25 0"/>
<feBlend mode="normal" in2="BackgroundImageFix" result="effect1_dropShadow"/>
<feBlend mode="normal" in="SourceGraphic" in2="effect1_dropShadow" result="shape"/>
</filter>
<filter id="filter1_d" x="299" y="76" width="24.6667" height="24.6667" filterUnits="userSpaceOnUse" color-interpolation-filters="sRGB">
<feFlood flood-opacity="0" result="BackgroundImageFix"/>
<feColorMatrix in="SourceAlpha" type="matrix" values="0 0 0 0 0 0 0 0 0 0 0 0 0 0 0 0 0 0 127 0"/>
<feOffset dy="2"/>
<feGaussianBlur stdDeviation="2"/>
<feColorMatrix type="matrix" values="0 0 0 0 0 0 0 0 0 0 0 0 0 0 0 0 0 0 0.25 0"/>
<feBlend mode="normal" in2="BackgroundImageFix" result="effect1_dropShadow"/>
<feBlend mode="normal" in="SourceGraphic" in2="effect1_dropShadow" result="shape"/>
</filter>
<filter id="filter2_d" x="202" y="16" width="38" height="172" filterUnits="userSpaceOnUse" color-interpolation-filters="sRGB">
<feFlood flood-opacity="0" result="BackgroundImageFix"/>
<feColorMatrix in="SourceAlpha" type="matrix" values="0 0 0 0 0 0 0 0 0 0 0 0 0 0 0 0 0 0 127 0"/>
<feOffset/>
<feGaussianBlur stdDeviation="2"/>
<feColorMatrix type="matrix" values="0 0 0 0 0 0 0 0 0 0 0 0 0 0 0 0 0 0 0.25 0"/>
<feBlend mode="normal" in2="BackgroundImageFix" result="effect1_dropShadow"/>
<feBlend mode="normal" in="SourceGraphic" in2="effect1_dropShadow" result="shape"/>
</filter>
<filter id="filter3_d" x="209" y="97" width="24.6667" height="24.6667" filterUnits="userSpaceOnUse" color-interpolation-filters="sRGB">
<feFlood flood-opacity="0" result="BackgroundImageFix"/>
<feColorMatrix in="SourceAlpha" type="matrix" values="0 0 0 0 0 0 0 0 0 0 0 0 0 0 0 0 0 0 127 0"/>
<feOffset dy="2"/>
<feGaussianBlur stdDeviation="2"/>
<feColorMatrix type="matrix" values="0 0 0 0 0 0 0 0 0 0 0 0 0 0 0 0 0 0 0.25 0"/>
<feBlend mode="normal" in2="BackgroundImageFix" result="effect1_dropShadow"/>
<feBlend mode="normal" in="SourceGraphic" in2="effect1_dropShadow" result="shape"/>
</filter>
<filter id="filter4_d" x="112" y="56" width="38" height="145.333" filterUnits="userSpaceOnUse" color-interpolation-filters="sRGB">
<feFlood flood-opacity="0" result="BackgroundImageFix"/>
<feColorMatrix in="SourceAlpha" type="matrix" values="0 0 0 0 0 0 0 0 0 0 0 0 0 0 0 0 0 0 127 0"/>
<feOffset/>
<feGaussianBlur stdDeviation="2"/>
<feColorMatrix type="matrix" values="0 0 0 0 0 0 0 0 0 0 0 0 0 0 0 0 0 0 0.25 0"/>
<feBlend mode="normal" in2="BackgroundImageFix" result="effect1_dropShadow"/>
<feBlend mode="normal" in="SourceGraphic" in2="effect1_dropShadow" result="shape"/>
</filter>
<filter id="filter5_d" x="119" y="141" width="24.6667" height="24.6667" filterUnits="userSpaceOnUse" color-interpolation-filters="sRGB">
<feFlood flood-opacity="0" result="BackgroundImageFix"/>
<feColorMatrix in="SourceAlpha" type="matrix" values="0 0 0 0 0 0 0 0 0 0 0 0 0 0 0 0 0 0 127 0"/>
<feOffset dy="2"/>
<feGaussianBlur stdDeviation="2"/>
<feColorMatrix type="matrix" values="0 0 0 0 0 0 0 0 0 0 0 0 0 0 0 0 0 0 0.25 0"/>
<feBlend mode="normal" in2="BackgroundImageFix" result="effect1_dropShadow"/>
<feBlend mode="normal" in="SourceGraphic" in2="effect1_dropShadow" result="shape"/>
</filter>
<filter id="filter6_d" x="13" y="35" width="38" height="166.333" filterUnits="userSpaceOnUse" color-interpolation-filters="sRGB">
<feFlood flood-opacity="0" result="BackgroundImageFix"/>
<feColorMatrix in="SourceAlpha" type="matrix" values="0 0 0 0 0 0 0 0 0 0 0 0 0 0 0 0 0 0 127 0"/>
<feOffset/>
<feGaussianBlur stdDeviation="2"/>
<feColorMatrix type="matrix" values="0 0 0 0 0 0 0 0 0 0 0 0 0 0 0 0 0 0 0.25 0"/>
<feBlend mode="normal" in2="BackgroundImageFix" result="effect1_dropShadow"/>
<feBlend mode="normal" in="SourceGraphic" in2="effect1_dropShadow" result="shape"/>
</filter>
<filter id="filter7_d" x="19.6667" y="92" width="24.6667" height="24.6667" filterUnits="userSpaceOnUse" color-interpolation-filters="sRGB">
<feFlood flood-opacity="0" result="BackgroundImageFix"/>
<feColorMatrix in="SourceAlpha" type="matrix" values="0 0 0 0 0 0 0 0 0 0 0 0 0 0 0 0 0 0 127 0"/>
<feOffset dy="2"/>
<feGaussianBlur stdDeviation="2"/>
<feColorMatrix type="matrix" values="0 0 0 0 0 0 0 0 0 0 0 0 0 0 0 0 0 0 0.25 0"/>
<feBlend mode="normal" in2="BackgroundImageFix" result="effect1_dropShadow"/>
<feBlend mode="normal" in="SourceGraphic" in2="effect1_dropShadow" result="shape"/>
</filter>
<filter id="filter8_d" x="3" y="251" width="21" height="21" filterUnits="userSpaceOnUse" color-interpolation-filters="sRGB">
<feFlood flood-opacity="0" result="BackgroundImageFix"/>
<feColorMatrix in="SourceAlpha" type="matrix" values="0 0 0 0 0 0 0 0 0 0 0 0 0 0 0 0 0 0 127 0"/>
<feOffset dy="4"/>
<feGaussianBlur stdDeviation="2"/>
<feColorMatrix type="matrix" values="0 0 0 0 0 0 0 0 0 0 0 0 0 0 0 0 0 0 0.25 0"/>
<feBlend mode="normal" in2="BackgroundImageFix" result="effect1_dropShadow"/>
<feBlend mode="normal" in="SourceGraphic" in2="effect1_dropShadow" result="shape"/>
</filter>
<filter id="filter9_d" x="73" y="251" width="21" height="21" filterUnits="userSpaceOnUse" color-interpolation-filters="sRGB">
<feFlood flood-opacity="0" result="BackgroundImageFix"/>
<feColorMatrix in="SourceAlpha" type="matrix" values="0 0 0 0 0 0 0 0 0 0 0 0 0 0 0 0 0 0 127 0"/>
<feOffset dy="4"/>
<feGaussianBlur stdDeviation="2"/>
<feColorMatrix type="matrix" values="0 0 0 0 0 0 0 0 0 0 0 0 0 0 0 0 0 0 0.25 0"/>
<feBlend mode="normal" in2="BackgroundImageFix" result="effect1_dropShadow"/>
<feBlend mode="normal" in="SourceGraphic" in2="effect1_dropShadow" result="shape"/>
</filter>
<filter id="filter10_d" x="229" y="250" width="21" height="21" filterUnits="userSpaceOnUse" color-interpolation-filters="sRGB">
<feFlood flood-opacity="0" result="BackgroundImageFix"/>
<feColorMatrix in="SourceAlpha" type="matrix" values="0 0 0 0 0 0 0 0 0 0 0 0 0 0 0 0 0 0 127 0"/>
<feOffset dy="4"/>
<feGaussianBlur stdDeviation="2"/>
<feColorMatrix type="matrix" values="0 0 0 0 0 0 0 0 0 0 0 0 0 0 0 0 0 0 0.25 0"/>
<feBlend mode="normal" in2="BackgroundImageFix" result="effect1_dropShadow"/>
<feBlend mode="normal" in="SourceGraphic" in2="effect1_dropShadow" result="shape"/>
</filter>
<filter id="filter11_d" x="299" y="250" width="21" height="21" filterUnits="userSpaceOnUse" color-interpolation-filters="sRGB">
<feFlood flood-opacity="0" result="BackgroundImageFix"/>
<feColorMatrix in="SourceAlpha" type="matrix" values="0 0 0 0 0 0 0 0 0 0 0 0 0 0 0 0 0 0 127 0"/>
<feOffset dy="4"/>
<feGaussianBlur stdDeviation="2"/>
<feColorMatrix type="matrix" values="0 0 0 0 0 0 0 0 0 0 0 0 0 0 0 0 0 0 0.25 0"/>
<feBlend mode="normal" in2="BackgroundImageFix" result="effect1_dropShadow"/>
<feBlend mode="normal" in="SourceGraphic" in2="effect1_dropShadow" result="shape"/>
</filter>
</defs>
</svg>
