<svg width="239" height="78" viewBox="0 0 239 78" fill="none" xmlns="http://www.w3.org/2000/svg">
<path d="M37.0532 62H57.0532V77H37.5532L37.0532 62Z" fill="#F9921A"/>
<path d="M16.365 0L35.3898 0L36.365 15L16.365 15V0Z" fill="#F9921A"/>
<path d="M10.5 31L62.3984 31L62 46H10.5V31Z" fill="#F9921A"/>
<path d="M27.0533 66.3554L62.4086 31.0001L73.0152 41.6067L37.5532 76.962L27.0533 66.3554Z" fill="#EED572"/>
<rect y="35.3555" width="50" height="15" transform="rotate(-45 0 35.3555)" fill="#EED572"/>
<path d="M28.6678 34.6263C28.5649 34.7178 28.5043 34.8477 28.5002 34.9853C28.4962 35.123 28.5491 35.2562 28.6464 35.3536L29.7614 36.4686C29.9165 36.6236 30.1545 36.6595 30.3484 36.5572L36 33.5743V51C36 51.2761 36.2239 51.5 36.5 51.5H39.5C39.7761 51.5 40 51.2761 40 51V33.5769L45.6354 36.5715C45.8295 36.6747 46.0681 36.639 46.2236 36.4836L47.3536 35.3536C47.4509 35.2562 47.5038 35.123 47.4998 34.9853C47.4957 34.8477 47.4351 34.7178 47.3322 34.6263L38.3322 26.6263C38.1427 26.4579 37.8573 26.4579 37.6678 26.6263L28.6678 34.6263Z" fill="#3F63E2" stroke="#3F63E2" stroke-linecap="round" stroke-linejoin="round"/>
<path d="M105.668 36.9596C105.565 37.0511 105.504 37.181 105.5 37.3186C105.496 37.4563 105.549 37.5895 105.646 37.6869L106.39 38.4302C106.545 38.5853 106.783 38.6212 106.977 38.5189L110.5 36.6593V48C110.5 48.2761 110.724 48.5 111 48.5H113C113.276 48.5 113.5 48.2761 113.5 48V36.6619L117.012 38.5282C117.206 38.6313 117.445 38.5956 117.6 38.4402L118.354 37.6869C118.451 37.5895 118.504 37.4563 118.5 37.3186C118.496 37.181 118.435 37.0511 118.332 36.9596L112.332 31.6263C112.143 31.4579 111.857 31.4579 111.668 31.6263L105.668 36.9596Z" fill="white" stroke="white" stroke-linecap="round" stroke-linejoin="round"/>
<path d="M102.256 33.924C102.144 34.108 102.028 34.244 101.908 34.332C101.796 34.412 101.648 34.452 101.464 34.452C101.288 34.452 101.096 34.392 100.888 34.272C100.688 34.144 100.452 34.008 100.18 33.864C99.908 33.72 99.596 33.588 99.244 33.468C98.892 33.34 98.48 33.276 98.008 33.276C97.176 33.276 96.552 33.464 96.136 33.84C95.72 34.208 95.512 34.692 95.512 35.292C95.512 35.676 95.624 35.996 95.848 36.252C96.08 36.5 96.38 36.716 96.748 36.9C97.124 37.084 97.548 37.248 98.02 37.392C98.492 37.536 98.976 37.696 99.472 37.872C99.968 38.04 100.452 38.24 100.924 38.472C101.396 38.704 101.816 38.996 102.184 39.348C102.56 39.7 102.86 40.132 103.084 40.644C103.316 41.148 103.432 41.764 103.432 42.492C103.432 43.284 103.292 44.028 103.012 44.724C102.74 45.412 102.344 46.016 101.824 46.536C101.304 47.048 100.66 47.452 99.892 47.748C99.132 48.044 98.268 48.192 97.3 48.192C96.748 48.192 96.196 48.136 95.644 48.024C95.1 47.912 94.572 47.756 94.06 47.556C93.556 47.356 93.08 47.116 92.632 46.836C92.184 46.556 91.792 46.244 91.456 45.9L92.512 44.196C92.6 44.068 92.716 43.964 92.86 43.884C93.004 43.796 93.156 43.752 93.316 43.752C93.532 43.752 93.76 43.832 94 43.992C94.24 44.152 94.516 44.328 94.828 44.52C95.14 44.712 95.5 44.888 95.908 45.048C96.324 45.208 96.82 45.288 97.396 45.288C98.236 45.288 98.884 45.096 99.34 44.712C99.804 44.328 100.036 43.756 100.036 42.996C100.036 42.556 99.92 42.2 99.688 41.928C99.464 41.656 99.168 41.428 98.8 41.244C98.432 41.06 98.012 40.904 97.54 40.776C97.068 40.64 96.584 40.492 96.088 40.332C95.592 40.172 95.108 39.98 94.636 39.756C94.164 39.532 93.744 39.236 93.376 38.868C93.008 38.5 92.708 38.044 92.476 37.5C92.252 36.956 92.14 36.28 92.14 35.472C92.14 34.824 92.268 34.196 92.524 33.588C92.78 32.98 93.156 32.44 93.652 31.968C94.148 31.496 94.756 31.116 95.476 30.828C96.204 30.54 97.036 30.396 97.972 30.396C99.02 30.396 99.988 30.56 100.876 30.888C101.772 31.208 102.528 31.656 103.144 32.232L102.256 33.924ZM127.701 42.828C126.893 42.868 126.221 42.94 125.685 43.044C125.149 43.14 124.721 43.268 124.401 43.428C124.089 43.588 123.865 43.772 123.729 43.98C123.601 44.18 123.537 44.4 123.537 44.64C123.537 45.12 123.669 45.46 123.933 45.66C124.205 45.86 124.581 45.96 125.061 45.96C125.613 45.96 126.089 45.864 126.489 45.672C126.897 45.472 127.301 45.164 127.701 44.748V42.828ZM120.957 37.344C121.685 36.688 122.489 36.2 123.369 35.88C124.249 35.552 125.201 35.388 126.225 35.388C126.961 35.388 127.617 35.508 128.193 35.748C128.777 35.988 129.269 36.324 129.669 36.756C130.077 37.18 130.389 37.688 130.605 38.28C130.821 38.872 130.929 39.52 130.929 40.224V48H129.417C129.105 48 128.865 47.956 128.697 47.868C128.537 47.78 128.405 47.596 128.301 47.316L128.037 46.524C127.725 46.796 127.421 47.036 127.125 47.244C126.837 47.452 126.537 47.628 126.225 47.772C125.913 47.908 125.577 48.012 125.217 48.084C124.865 48.156 124.469 48.192 124.029 48.192C123.485 48.192 122.989 48.12 122.541 47.976C122.093 47.832 121.705 47.62 121.377 47.34C121.057 47.052 120.809 46.696 120.633 46.272C120.457 45.848 120.369 45.36 120.369 44.808C120.369 44.352 120.485 43.896 120.717 43.44C120.949 42.984 121.345 42.572 121.905 42.204C122.473 41.828 123.225 41.52 124.161 41.28C125.105 41.032 126.285 40.892 127.701 40.86V40.224C127.701 39.448 127.537 38.88 127.209 38.52C126.881 38.152 126.409 37.968 125.793 37.968C125.337 37.968 124.957 38.024 124.653 38.136C124.349 38.24 124.081 38.356 123.849 38.484C123.625 38.604 123.413 38.72 123.213 38.832C123.013 38.936 122.781 38.988 122.517 38.988C122.285 38.988 122.089 38.932 121.929 38.82C121.777 38.7 121.649 38.56 121.545 38.4L120.957 37.344ZM136.262 37.668C136.654 36.964 137.106 36.408 137.618 36C138.13 35.592 138.73 35.388 139.418 35.388C139.978 35.388 140.434 35.52 140.786 35.784L140.57 38.232C140.53 38.392 140.466 38.504 140.378 38.568C140.298 38.624 140.186 38.652 140.042 38.652C139.914 38.652 139.73 38.636 139.49 38.604C139.25 38.564 139.026 38.544 138.818 38.544C138.514 38.544 138.242 38.588 138.002 38.676C137.77 38.764 137.562 38.888 137.378 39.048C137.194 39.208 137.026 39.404 136.874 39.636C136.73 39.868 136.594 40.132 136.466 40.428V48H133.154V35.628H135.11C135.446 35.628 135.678 35.688 135.806 35.808C135.934 35.928 136.026 36.136 136.082 36.432L136.262 37.668ZM166.34 30.588V48H163.16V37.308C163.16 37.084 163.164 36.844 163.172 36.588C163.188 36.332 163.212 36.072 163.244 35.808L158.264 45.252C157.992 45.772 157.572 46.032 157.004 46.032H156.5C156.22 46.032 155.972 45.968 155.756 45.84C155.54 45.704 155.368 45.508 155.24 45.252L150.236 35.772C150.26 36.052 150.28 36.324 150.296 36.588C150.312 36.844 150.32 37.084 150.32 37.308V48H147.14V30.588H149.876C150.028 30.588 150.164 30.592 150.284 30.6C150.404 30.608 150.508 30.632 150.596 30.672C150.692 30.704 150.776 30.76 150.848 30.84C150.928 30.912 151.004 31.016 151.076 31.152L155.948 40.44C156.1 40.72 156.24 41.008 156.368 41.304C156.504 41.6 156.632 41.904 156.752 42.216C156.872 41.896 156.996 41.584 157.124 41.28C157.26 40.976 157.404 40.684 157.556 40.404L162.392 31.152C162.464 31.016 162.54 30.912 162.62 30.84C162.7 30.76 162.784 30.704 162.872 30.672C162.968 30.632 163.072 30.608 163.184 30.6C163.304 30.592 163.444 30.588 163.604 30.588H166.34ZM174.357 35.436C175.285 35.436 176.129 35.584 176.889 35.88C177.649 36.176 178.301 36.6 178.845 37.152C179.389 37.696 179.809 38.36 180.105 39.144C180.401 39.928 180.549 40.812 180.549 41.796C180.549 42.78 180.401 43.668 180.105 44.46C179.809 45.244 179.389 45.912 178.845 46.464C178.301 47.016 177.649 47.44 176.889 47.736C176.129 48.032 175.285 48.18 174.357 48.18C173.421 48.18 172.569 48.032 171.801 47.736C171.041 47.44 170.389 47.016 169.845 46.464C169.301 45.912 168.877 45.244 168.573 44.46C168.277 43.668 168.129 42.78 168.129 41.796C168.129 40.812 168.277 39.928 168.573 39.144C168.877 38.36 169.301 37.696 169.845 37.152C170.389 36.6 171.041 36.176 171.801 35.88C172.569 35.584 173.421 35.436 174.357 35.436ZM174.357 45.696C175.301 45.696 176.001 45.372 176.457 44.724C176.913 44.068 177.141 43.096 177.141 41.808C177.141 40.528 176.913 39.564 176.457 38.916C176.001 38.26 175.301 37.932 174.357 37.932C173.389 37.932 172.677 38.26 172.221 38.916C171.765 39.564 171.537 40.528 171.537 41.808C171.537 43.096 171.765 44.068 172.221 44.724C172.677 45.372 173.389 45.696 174.357 45.696ZM185.341 37.068C185.589 36.828 185.845 36.608 186.109 36.408C186.381 36.208 186.665 36.036 186.961 35.892C187.265 35.748 187.589 35.636 187.933 35.556C188.285 35.476 188.665 35.436 189.073 35.436C189.745 35.436 190.341 35.552 190.861 35.784C191.381 36.016 191.817 36.34 192.169 36.756C192.529 37.172 192.797 37.668 192.973 38.244C193.157 38.82 193.249 39.452 193.249 40.14V48H189.949V40.14C189.949 39.452 189.789 38.92 189.469 38.544C189.149 38.16 188.677 37.968 188.053 37.968C187.589 37.968 187.153 38.068 186.745 38.268C186.337 38.468 185.949 38.748 185.581 39.108V48H182.269V35.628H184.309C184.725 35.628 185.001 35.82 185.137 36.204L185.341 37.068ZM203.374 40.356C203.374 40.012 203.326 39.684 203.23 39.372C203.142 39.06 202.998 38.784 202.798 38.544C202.598 38.304 202.346 38.116 202.042 37.98C201.738 37.836 201.374 37.764 200.95 37.764C200.158 37.764 199.538 37.988 199.09 38.436C198.642 38.884 198.35 39.524 198.214 40.356H203.374ZM198.166 42.324C198.27 43.484 198.598 44.332 199.15 44.868C199.71 45.404 200.438 45.672 201.334 45.672C201.79 45.672 202.182 45.62 202.51 45.516C202.846 45.404 203.138 45.284 203.386 45.156C203.642 45.02 203.87 44.9 204.07 44.796C204.278 44.684 204.482 44.628 204.682 44.628C204.938 44.628 205.138 44.724 205.282 44.916L206.242 46.116C205.89 46.524 205.502 46.864 205.078 47.136C204.654 47.4 204.214 47.612 203.758 47.772C203.302 47.924 202.842 48.028 202.378 48.084C201.914 48.148 201.466 48.18 201.034 48.18C200.17 48.18 199.362 48.04 198.61 47.76C197.866 47.472 197.214 47.052 196.654 46.5C196.102 45.94 195.666 45.248 195.346 44.424C195.026 43.6 194.866 42.644 194.866 41.556C194.866 40.716 195.002 39.924 195.274 39.18C195.554 38.436 195.954 37.788 196.474 37.236C196.994 36.684 197.626 36.248 198.37 35.928C199.114 35.6 199.954 35.436 200.89 35.436C201.682 35.436 202.41 35.564 203.074 35.82C203.746 36.068 204.322 36.432 204.802 36.912C205.29 37.392 205.666 37.984 205.93 38.688C206.202 39.384 206.338 40.18 206.338 41.076C206.338 41.324 206.326 41.528 206.302 41.688C206.278 41.848 206.238 41.976 206.182 42.072C206.126 42.168 206.05 42.236 205.954 42.276C205.858 42.308 205.734 42.324 205.582 42.324H198.166ZM219.13 35.628L212.458 51.324C212.354 51.548 212.226 51.716 212.074 51.828C211.93 51.94 211.698 51.996 211.378 51.996H208.918L211.258 47.004L206.29 35.628H209.194C209.458 35.628 209.662 35.688 209.806 35.808C209.95 35.928 210.054 36.068 210.118 36.228L212.47 42.144C212.558 42.376 212.634 42.612 212.698 42.852C212.77 43.084 212.838 43.316 212.902 43.548C213.046 43.076 213.21 42.604 213.394 42.132L215.578 36.228C215.642 36.052 215.758 35.908 215.926 35.796C216.094 35.684 216.278 35.628 216.478 35.628H219.13Z" fill="white"/>
</svg>
