<svg width="74" height="78" viewBox="0 0 74 78" fill="none" xmlns="http://www.w3.org/2000/svg">
<path d="M37.0532 62H57.0532V77H37.5532L37.0532 62Z" fill="#F9921A"/>
<path d="M16.365 0L35.3898 0L36.365 15L16.365 15V0Z" fill="#F9921A"/>
<path d="M10.5 31L62.3984 31L62 46H10.5V31Z" fill="#F9921A"/>
<path d="M27.0533 66.3554L62.4086 31.0001L73.0152 41.6067L37.5532 76.962L27.0533 66.3554Z" fill="#EED572"/>
<rect y="35.3555" width="50" height="15" transform="rotate(-45 0 35.3555)" fill="#EED572"/>
<path d="M28.6678 34.6263C28.5649 34.7178 28.5043 34.8477 28.5002 34.9853C28.4962 35.123 28.5491 35.2562 28.6464 35.3536L29.7614 36.4686C29.9165 36.6236 30.1545 36.6595 30.3484 36.5572L36 33.5743V51C36 51.2761 36.2239 51.5 36.5 51.5H39.5C39.7761 51.5 40 51.2761 40 51V33.5769L45.6354 36.5715C45.8295 36.6747 46.0681 36.639 46.2236 36.4836L47.3536 35.3536C47.4509 35.2562 47.5038 35.123 47.4998 34.9853C47.4957 34.8477 47.4351 34.7178 47.3322 34.6263L38.3322 26.6263C38.1427 26.4579 37.8573 26.4579 37.6678 26.6263L28.6678 34.6263Z" fill="#3F63E2" stroke="#3F63E2" stroke-linecap="round" stroke-linejoin="round"/>
</svg>
